<?xml version="1.0" encoding="UTF-8"?>
<svg version="1.1" xmlns="http://www.w3.org/2000/svg" width="566" height="566">
<path d="M0 0 C15.52927271 7.9130052 27.72052563 32.67400585 33.20703125 48.4765625 C38.65322893 65.52720258 39.63959422 84.33384565 31.3125 100.625 C10.79439374 135.83508357 -28.79918253 148.84065956 -64.6875 162.625 C-65.52616608 162.94735626 -66.36483215 163.26971252 -67.22891235 163.60183716 C-75.32610909 166.71165212 -83.42781514 169.80244841 -91.57421875 172.78125 C-93.20194214 173.38718994 -93.20194214 173.38718994 -94.86254883 174.00537109 C-96.80797614 174.72842237 -98.75938421 175.43567005 -100.7175293 176.12353516 C-105.41364072 177.71473692 -105.41364072 177.71473692 -108.21484375 181.515625 C-107.96821451 184.36755581 -107.48655862 185.42345657 -105.6875 187.625 C-105.12804687 188.3159375 -104.56859375 189.006875 -103.9921875 189.71875 C-100.96007591 193.19081504 -97.82743987 196.56772576 -94.69921875 199.953125 C-91.8314488 203.12774738 -89.22869244 206.48304657 -86.625 209.875 C-82.45590746 215.29370854 -78.02438144 220.3412196 -73.34033203 225.31811523 C-69.46995834 229.44412704 -65.86915958 233.73403934 -62.32421875 238.14453125 C-59.71025151 241.35597671 -57.01839611 244.49113728 -54.3125 247.625 C-52.77043757 249.4233595 -51.23046749 251.22348552 -49.69140625 253.02441406 C-48.50152627 254.41421036 -47.30853236 255.80134371 -46.11328125 257.18652344 C-44.16763822 259.44770239 -42.23883665 261.72236551 -40.3125 264 C-39.69995361 264.70592285 -39.08740723 265.4118457 -38.45629883 266.13916016 C-32.6448412 273.06798345 -32.6448412 273.06798345 -33 278 C-40.72230125 289.77215472 -58.05778042 293.3436804 -70.62109375 297.73046875 C-75.49316432 299.43872434 -80.2839154 301.28962218 -85.06860352 303.22680664 C-111.73171611 313.89867226 -142.71299266 318.34676706 -170.1875 307.8125 C-187.87351838 299.77340074 -200.51698041 287.54240885 -212.16015625 272.30859375 C-214.84995278 268.93349875 -217.77267867 265.78551169 -220.6796875 262.59765625 C-225.40048473 257.31258864 -229.80882784 251.75925383 -234.21484375 246.2109375 C-238.73761162 240.56741345 -243.48744819 235.39306767 -248.65625 230.3359375 C-251.33980967 227.66132303 -253.82740326 224.86990183 -256.2890625 221.9921875 C-258.15788023 219.81616685 -260.07753233 217.69120941 -262 215.5625 C-264.53248298 212.72070612 -266.94133538 209.83841964 -269.25 206.8125 C-272.79140594 202.18205123 -276.57335867 197.78360589 -280.37915039 193.37109375 C-286.09656095 186.74014526 -291.73645048 180.04520386 -297.234375 173.23046875 C-302.1368572 167.15452007 -307.25477254 161.39452817 -312.6171875 155.7265625 C-315.86812782 152.00663407 -317.83066583 149.37886399 -318.4375 144.4375 C-317.90435824 140.24852901 -317.21137166 139.63899785 -314 137 C-311.38593878 135.49856985 -308.6825207 134.242391 -305.9375 133 C-305.1854126 132.65259766 -304.4333252 132.30519531 -303.65844727 131.94726562 C-297.88237678 129.31397529 -292.03393589 126.98090336 -286 125 C-286 124.34 -286 123.68 -286 123 C-279.24917015 119.95087518 -273.38018126 117.64738432 -266 117 C-263.13326836 116.03973184 -263.13326836 116.03973184 -261 115 C-261 114.34 -261 113.68 -261 113 C-256 112 -256 112 -253.81274414 111.65185547 C-250.12193997 110.79650896 -246.68923794 109.41703312 -243.18359375 108.0078125 C-242.04373268 107.5555706 -242.04373268 107.5555706 -240.88084412 107.0941925 C-238.3981938 106.10827527 -235.9178929 105.11658106 -233.4375 104.125 C-231.70412619 103.43580782 -229.97056314 102.7470914 -228.23681641 102.05883789 C-224.76283689 100.67941721 -221.28956965 99.29822843 -217.81689453 97.91552734 C-211.50970688 95.40556676 -205.19387396 92.91789802 -198.875 90.4375 C-197.77897461 90.00703369 -196.68294922 89.57656738 -195.55371094 89.13305664 C-182.2745827 83.92309581 -168.97878147 78.7559692 -155.68000793 73.59640503 C-151.40912075 71.93850668 -147.14105351 70.27366776 -142.87606812 68.60064697 C-139.64784265 67.33460363 -136.41809671 66.07247925 -133.1875 64.8125 C-132.56091492 64.56802124 -131.93432983 64.32354248 -131.28875732 64.07165527 C-122.19094977 60.53063637 -113.02937176 57.21712653 -103.8097229 54.00805664 C-91.22565406 49.62550492 -78.97271561 44.873301 -67 39 C-66.37416016 38.70125977 -65.74832031 38.40251953 -65.10351562 38.09472656 C-51.37383139 31.49705668 -35.6550682 22.89929418 -25 12 C-19 8 -19 8 -17.05078125 7.0703125 C-14.81592142 5.90392851 -13.11195749 4.49765866 -11.1875 2.875 C-7.35047607 -0.04199403 -4.89490615 -0.83121048 0 0 Z " fill="#76E3FC" transform="translate(407,204)"/>
<path d="M0 0 C12.84906566 3.79152757 20.46009626 16.79606421 26.58227539 27.88623047 C32.8276679 39.57432898 36.94955749 50.73590761 37.8125 64.125 C37.85632813 64.80320801 37.90015625 65.48141602 37.9453125 66.18017578 C39.08354221 86.62562692 33.16323803 102.85150556 19.55078125 118.171875 C14.4126964 123.7951543 9.04507794 128.2794968 2.37890625 131.984375 C0.4885679 133.12887019 0.4885679 133.12887019 -0.1875 136.125 C-1.02539062 136.21652344 -1.86328125 136.30804688 -2.7265625 136.40234375 C-6.7049342 137.23304213 -10.0001503 138.80964343 -13.5625 140.6875 C-14.20316406 141.01685547 -14.84382813 141.34621094 -15.50390625 141.68554688 C-17.06888632 142.49139482 -18.62874021 143.30718493 -20.1875 144.125 C-20.1875 144.785 -20.1875 145.445 -20.1875 146.125 C-22.07673398 147.13741247 -23.97419944 148.13447425 -25.875 149.125 C-26.93074219 149.681875 -27.98648437 150.23875 -29.07421875 150.8125 C-32.10976262 152.0922274 -33.94776826 152.41351043 -37.1875 152.125 C-37.1875 152.785 -37.1875 153.445 -37.1875 154.125 C-39.91574206 154.6866969 -42.61378136 155.18350921 -45.375 155.5625 C-48.31172973 155.8794296 -48.31172973 155.8794296 -50.1875 158.125 C-53.31675467 161.25425467 -57.16530369 160.98739665 -61.4375 161.5625 C-64.31854112 161.88866676 -64.31854112 161.88866676 -66.1875 164.125 C-69.99787426 167.93537426 -75.32868593 169.15265769 -80.5625 169.6875 C-84.22519787 169.7511733 -84.22519787 169.7511733 -86.1875 172.125 C-89.56058172 175.25714731 -91.6855751 175.22286793 -96.1875 175.125 C-96.8475 175.785 -97.5075 176.445 -98.1875 177.125 C-100.90135878 179.83885878 -103.5958163 180.80804931 -107.1875 182.125 C-108.115625 182.104375 -109.04375 182.08375 -110 182.0625 C-114.82532318 182.15711418 -118.81894579 184.19109458 -123.1875 186.125 C-123.1875 186.785 -123.1875 187.445 -123.1875 188.125 C-126.26864984 189.61587895 -128.87897629 190.22910944 -132.25 190.4375 C-138.36165368 190.97433444 -143.66707181 193.59363614 -149.1875 196.125 C-149.1875 196.785 -149.1875 197.445 -149.1875 198.125 C-153.06148423 199.9480514 -155.95232191 200.125 -160.1875 200.125 C-160.8475 200.785 -161.5075 201.445 -162.1875 202.125 C-163.9375 203.75 -163.9375 203.75 -166.1875 205.125 C-167.46753906 205.05925781 -167.46753906 205.05925781 -168.7734375 204.9921875 C-173.37517307 205.17120239 -176.88524852 206.7912574 -181.0625 208.625 C-181.84625 208.95886719 -182.63 209.29273438 -183.4375 209.63671875 C-185.35828409 210.45656562 -187.27348082 211.28948161 -189.1875 212.125 C-189.1875 212.785 -189.1875 213.445 -189.1875 214.125 C-192.52083333 214.79166667 -195.85416667 215.45833333 -199.1875 216.125 C-199.1875 216.785 -199.1875 217.445 -199.1875 218.125 C-202.00146111 219.44921699 -203.92415488 220.13072489 -207.0625 220.0625 C-211.10198915 220.14328978 -213.56261198 221.38505375 -217.1875 223.125 C-217.1875 223.785 -217.1875 224.445 -217.1875 225.125 C-222.33682103 227.59238299 -226.51385169 228.55763517 -232.1875 229.125 C-233.1775 229.455 -234.1675 229.785 -235.1875 230.125 C-238.99220486 230.64089218 -241.63807692 230.99490915 -245.03125 229.08984375 C-255.758656 220.20336971 -264.49232022 207.91225311 -273.1875 197.125 C-273.95578125 196.19171875 -274.7240625 195.2584375 -275.515625 194.296875 C-276.25296875 193.39453125 -276.9903125 192.4921875 -277.75 191.5625 C-278.41128906 190.75683594 -279.07257813 189.95117188 -279.75390625 189.12109375 C-281.1875 187.125 -281.1875 187.125 -281.1875 185.125 C-282.1775 184.795 -283.1675 184.465 -284.1875 184.125 C-285.70966957 182.45175367 -287.15937505 180.71175868 -288.5625 178.9375 C-289.31273437 177.99519531 -290.06296875 177.05289063 -290.8359375 176.08203125 C-291.61195313 175.10621094 -292.38796875 174.13039062 -293.1875 173.125 C-293.99574219 172.15949219 -294.80398438 171.19398438 -295.63671875 170.19921875 C-298.85530563 166.32015616 -301.93109334 162.3384358 -304.99414062 158.3359375 C-307.33795335 155.31723969 -309.70938819 152.56990903 -312.4921875 149.9453125 C-315.64854009 146.64257834 -315.64854009 146.64257834 -315.875 143 C-315.1875 139.125 -315.1875 139.125 -313.36816406 137.15527344 C-308.73347285 134.19686907 -303.78134966 132.57944791 -298.609375 130.765625 C-296.15280166 129.87950704 -293.69754224 128.99049726 -291.24414062 128.09570312 C-290.27189985 127.74180071 -290.27189985 127.74180071 -289.28001785 127.38074875 C-281.48538951 124.52731413 -273.78187743 121.4480689 -266.078125 118.359375 C-265.33550604 118.06198803 -264.59288708 117.76460106 -263.82776451 117.45820236 C-259.16761165 115.59139586 -254.50957905 113.71934833 -249.85213852 111.84578705 C-245.73429145 110.19023796 -241.61475995 108.53889083 -237.49536133 106.88720703 C-231.67199043 104.55194351 -225.84907151 102.21556056 -220.02683353 99.87747383 C-207.12756636 94.69741811 -194.22155964 89.53431185 -181.3140564 84.37481689 C-175.76630703 82.15701681 -170.21910992 79.93783643 -164.671875 77.71875 C-162.66992463 76.91796187 -160.66797161 76.11718034 -158.66601562 75.31640625 C-157.73587646 74.94435059 -156.8057373 74.57229492 -155.84741211 74.18896484 C-153.3819987 73.20279948 -150.91658529 72.21663411 -148.45117188 71.23046875 C-147.374636 70.79985138 -147.374636 70.79985138 -146.27635193 70.36053467 C-144.91898655 69.81759251 -143.56161575 69.27466393 -142.20423889 68.73175049 C-139.18542643 67.52429251 -136.16671953 66.31657196 -133.14819336 65.10839844 C-127.40948981 62.81174781 -121.66897221 60.51978309 -115.92578125 58.234375 C-109.01549991 55.48376185 -102.11248958 52.71524711 -95.21258545 49.9387207 C-93.09844825 49.08921719 -90.98313441 48.24269142 -88.86767578 47.39648438 C-66.39069131 38.39444151 -45.10143324 29.08243489 -25.1875 15.125 C-23.3823947 13.87226079 -21.57585395 12.62161536 -19.76904297 11.37133789 C-18.17324487 10.2643243 -16.58251991 9.15000759 -14.9921875 8.03515625 C-13.1752988 6.79774877 -11.32412898 5.60869432 -9.4375 4.48046875 C-7.14139507 3.20313023 -7.14139507 3.20313023 -5.3125 1.375 C-3.1875 0.125 -3.1875 0.125 0 0 Z " fill="#57DBFB" transform="translate(428.1875,39.875)"/>
<path d="M0 0 C15.52927271 7.9130052 27.72052563 32.67400585 33.20703125 48.4765625 C38.65322893 65.52720258 39.63959422 84.33384565 31.3125 100.625 C8.29484626 140.1244305 -39.49869485 153.02985295 -79.51074219 168.28759766 C-85.61648321 170.61598123 -91.71837523 172.95383606 -97.8125 175.3125 C-98.74215576 175.66715332 -99.67181152 176.02180664 -100.62963867 176.38720703 C-101.45955322 176.70931152 -102.28946777 177.03141602 -103.14453125 177.36328125 C-103.84940674 177.63438721 -104.55428223 177.90549316 -105.28051758 178.18481445 C-107.20169698 178.97767962 -107.20169698 178.97767962 -109 181 C-109.33 180.67 -109.66 180.34 -110 180 C-110.763125 180.04125 -111.52625 180.0825 -112.3125 180.125 C-115.58271174 179.97289713 -116.50366978 179.0282683 -119 177 C-119.825 176.79375 -120.65 176.5875 -121.5 176.375 C-124.97758966 174.46232568 -125.52740022 172.11235648 -126.97265625 168.51953125 C-129.52854071 162.25129749 -131.7588959 157.12055205 -138 154 C-138.495 153.319375 -138.99 152.63875 -139.5 151.9375 C-140.87472354 149.79053372 -140.87472354 149.79053372 -143.4375 149.1875 C-146.75957476 147.64800194 -147.46862452 145.85123722 -149.0859375 142.67578125 C-149.97255492 140.86284806 -149.97255492 140.86284806 -151.75 139.25 C-152.1625 138.8375 -152.575 138.425 -153 138 C-153 137.01 -153 136.02 -153 135 C-153.928125 134.62875 -153.928125 134.62875 -154.875 134.25 C-157 133 -157 133 -158 130.9375 C-158.495 129.9784375 -158.495 129.9784375 -159 129 C-160.32303717 128.6278958 -161.65737935 128.29369827 -163 128 C-165 125 -165 125 -165.875 121.4375 C-166.24625 120.303125 -166.6175 119.16875 -167 118 C-168.32994937 117.32660791 -169.66376399 116.66082944 -171 116 C-172.78125 113.94140625 -172.78125 113.94140625 -174.5 111.5625 C-176.29470775 109.08661908 -177.76395325 107.17661948 -180.21875 105.33984375 C-180.8065625 104.89769531 -181.394375 104.45554687 -182 104 C-182 103.34 -182 102.68 -182 102 C-182.8353125 101.7215625 -182.8353125 101.7215625 -183.6875 101.4375 C-187.02200247 99.36470117 -189.13233857 96.4368032 -191 93 C-191 92.01 -191 91.02 -191 90 C-192.65 90 -194.3 90 -196 90 C-192.8544122 87.90294147 -189.96605184 86.74975054 -186.4296875 85.41796875 C-185.43974037 85.04277603 -185.43974037 85.04277603 -184.42979431 84.66000366 C-182.99842991 84.11774258 -181.56645355 83.57709471 -180.13394165 83.03787231 C-176.25427819 81.57738377 -172.37890055 80.10563712 -168.50390625 78.6328125 C-167.70665634 78.32994827 -166.90940643 78.02708405 -166.08799744 77.71504211 C-160.96787347 75.76467784 -155.86562211 73.77411094 -150.77734375 71.7421875 C-150.11870834 71.47932449 -149.46007294 71.21646149 -148.78147888 70.94563293 C-147.45566683 70.41629362 -146.12987637 69.88690024 -144.80410767 69.35745239 C-132.70428257 64.52779389 -120.52811427 59.99627004 -108.24472046 55.65408325 C-94.19877408 50.68825998 -80.35520346 45.65406537 -67 39 C-66.38576172 38.70561035 -65.77152344 38.4112207 -65.13867188 38.10791016 C-51.36376009 31.4916432 -35.68155597 22.92638907 -25 12 C-19 8 -19 8 -17.05078125 7.0703125 C-14.81592142 5.90392851 -13.11195749 4.49765866 -11.1875 2.875 C-7.35047607 -0.04199403 -4.89490615 -0.83121048 0 0 Z " fill="#3887FC" transform="translate(407,204)"/>
<path d="M0 0 C0.34611328 0.79664063 0.34611328 0.79664063 0.69921875 1.609375 C2.87421083 6.32042503 4.78591564 8.86393722 9 12 C12.03753409 15.23005386 14.88980158 18.62583831 17.67578125 22.07421875 C18.19527344 22.70972656 18.71476563 23.34523438 19.25 24 C19.70890625 24.5775 20.1678125 25.155 20.640625 25.75 C22.06026199 27.33843661 22.06026199 27.33843661 25 27 C25.99 30.63 26.98 34.26 28 38 C29.32 38.33 30.64 38.66 32 39 C33.38232443 40.62626404 34.71937515 42.2925002 36 44 C36.66 44.33 37.32 44.66 38 45 C39.01351664 46.65848177 40.01120795 48.32665961 41 50 C41.721875 50.86625 42.44375 51.7325 43.1875 52.625 C45 55 45 55 45 58 C45.9075 58.226875 46.815 58.45375 47.75 58.6875 C51.50230342 60.2028533 52.61380084 61.81840112 55 65 C55.64710938 65.29777344 56.29421875 65.59554687 56.9609375 65.90234375 C59.50085846 67.26961921 60.17475261 68.5239349 61.5 71.0625 C61.92539062 71.86042969 62.35078125 72.65835938 62.7890625 73.48046875 C63.956509 75.90951066 64.91171426 78.3597539 65.875 80.875 C67.28197654 84.19847545 68.33752396 85.59451107 71.6875 87 C72.780625 87.33 73.87375 87.66 75 88 C75.33 88.33 75.66 88.66 76 89 C77.99958364 89.04080783 80.00045254 89.04254356 82 89 C82 90.65 82 92.3 82 94 C81.01 94.495 81.01 94.495 80 95 C80 94.34 80 93.68 80 93 C78.06215735 93.14120714 76.12473045 93.28812873 74.1875 93.4375 C73.10855469 93.51871094 72.02960938 93.59992188 70.91796875 93.68359375 C67.94010095 93.90212461 67.94010095 93.90212461 65 95 C64.67 95.66 64.34 96.32 64 97 C61.671875 97.78125 61.671875 97.78125 58.75 98.5 C55.01948096 99.42758852 51.54962022 100.52498889 48 102 C47.0925 102.28875 46.185 102.5775 45.25 102.875 C42.62686286 103.78300901 40.20484555 104.78608803 37.6875 105.9375 C34.7218934 107.28190833 31.78930036 108.44852018 28.6875 109.4375 C15.98505568 113.12631996 15.98505568 113.12631996 5 120 C3.33382885 120.04063832 1.66611905 120.042721 0 120 C0 120.66 0 121.32 0 122 C-1.051875 122.28875 -2.10375 122.5775 -3.1875 122.875 C-6.78491333 123.86879676 -6.78491333 123.86879676 -9.3125 124.9375 C-11.77952864 125.91283691 -14.20121448 126.64845867 -16.75 127.375 C-21.03632315 128.62704074 -24.97194023 130.26998819 -29.015625 132.1484375 C-31.30813096 133.13222943 -33.52709777 133.68091584 -36 134 C-36 134.99 -36 135.98 -36 137 C-38.97 137.99 -41.94 138.98 -45 140 C-44.9175 140.7425 -44.835 141.485 -44.75 142.25 C-45.07253353 145.7978688 -46.44833166 146.64925043 -49 149 C-54.62155295 143.46993706 -60.20155579 137.95996088 -65.32421875 131.95703125 C-67.17919534 129.79072992 -69.0883217 127.67887043 -71 125.5625 C-73.53248298 122.72070612 -75.94133538 119.83841964 -78.25 116.8125 C-81.79140594 112.18205123 -85.57335867 107.78360589 -89.37915039 103.37109375 C-95.09656095 96.74014526 -100.73645048 90.04520386 -106.234375 83.23046875 C-111.1368572 77.15452007 -116.25477254 71.39452817 -121.6171875 65.7265625 C-124.86812782 62.00663407 -126.83066583 59.37886399 -127.4375 54.4375 C-126.90435824 50.24852901 -126.21137166 49.63899785 -123 47 C-120.38593878 45.49856985 -117.6825207 44.242391 -114.9375 43 C-114.1854126 42.65259766 -113.4333252 42.30519531 -112.65844727 41.94726562 C-106.88237678 39.31397529 -101.03393589 36.98090336 -95 35 C-95 34.34 -95 33.68 -95 33 C-88.24917015 29.95087518 -82.38018126 27.64738432 -75 27 C-72.13326836 26.03973184 -72.13326836 26.03973184 -70 25 C-70 24.34 -70 23.68 -70 23 C-65 22 -65 22 -62.84130859 21.6628418 C-58.9745834 20.76078312 -55.40656131 19.30784756 -51.7265625 17.83203125 C-50.92576263 17.51473557 -50.12496277 17.19743988 -49.29989624 16.87052917 C-46.74000692 15.8551382 -44.18249493 14.83390467 -41.625 13.8125 C-39.94416265 13.14479895 -38.26317437 12.4774777 -36.58203125 11.81054688 C-35.75749451 11.4829538 -34.93295776 11.15536072 -34.08343506 10.81784058 C-32.43227801 10.16199464 -30.7807897 9.50698204 -29.12896729 8.85281372 C-25.29422728 7.33005087 -21.47244277 5.78661889 -17.67480469 4.17333984 C-17.00242767 3.89189621 -16.33005066 3.61045258 -15.63729858 3.32048035 C-13.84608786 2.56846015 -12.06025579 1.80366379 -10.27490234 1.0378418 C-6.68467983 -0.09992739 -3.7433694 -0.19075817 0 0 Z " fill="#50CAFD" transform="translate(216,294)"/>
<path d="M0 0 C0 1.65 0 3.3 0 5 C-0.66 5.33 -1.32 5.66 -2 6 C-2 5.34 -2 4.68 -2 4 C-3.93784265 4.14120714 -5.87526955 4.28812873 -7.8125 4.4375 C-8.89144531 4.51871094 -9.97039062 4.59992188 -11.08203125 4.68359375 C-14.05989905 4.90212461 -14.05989905 4.90212461 -17 6 C-17.33 6.66 -17.66 7.32 -18 8 C-20.328125 8.78125 -20.328125 8.78125 -23.25 9.5 C-26.98051904 10.42758852 -30.45037978 11.52498889 -34 13 C-34.9075 13.28875 -35.815 13.5775 -36.75 13.875 C-39.37313714 14.78300901 -41.79515445 15.78608803 -44.3125 16.9375 C-47.2781066 18.28190833 -50.21069964 19.44852018 -53.3125 20.4375 C-66.01494432 24.12631996 -66.01494432 24.12631996 -77 31 C-78.66617115 31.04063832 -80.33388095 31.042721 -82 31 C-82 31.66 -82 32.32 -82 33 C-83.051875 33.28875 -84.10375 33.5775 -85.1875 33.875 C-88.78491333 34.86879676 -88.78491333 34.86879676 -91.3125 35.9375 C-93.75911327 36.90476571 -96.16186051 37.64720669 -98.6875 38.375 C-103.93727722 39.91440836 -108.9578832 41.88660211 -114 44 C-114 42.35 -114 40.7 -114 39 C-111.41958904 37.99183944 -108.83613056 36.9932889 -106.25 36 C-105.15558594 35.57074219 -105.15558594 35.57074219 -104.0390625 35.1328125 C-103.33007812 34.86210937 -102.62109375 34.59140625 -101.890625 34.3125 C-101.24125977 34.06113281 -100.59189453 33.80976563 -99.92285156 33.55078125 C-98 33 -98 33 -94 33 C-94 32.34 -94 31.68 -94 31 C-93.01 30.7525 -92.02 30.505 -91 30.25 C-88.10050772 29.44490959 -85.68618433 28.34010689 -83.0625 26.875 C-80.08793691 25.28971928 -78.1704121 24.828961 -74.8125 25.0625 C-70.90112223 25.42821203 -70.90112223 25.42821203 -68.5625 22.6875 C-67.716875 21.800625 -66.87125 20.91375 -66 20 C-62.0693382 18.21270085 -58.32787874 17 -54 17 C-54 16.34 -54 15.68 -54 15 C-40.3667426 9.44419134 -40.3667426 9.44419134 -34 9 C-34 8.34 -34 7.68 -34 7 C-29.8803623 5.70756464 -26.33168317 4.73747375 -22 5 C-22 4.34 -22 3.68 -22 3 C-17.33660428 1.21587038 -13.16357461 0.63869777 -8.1875 0.375 C-7.50751953 0.33632813 -6.82753906 0.29765625 -6.12695312 0.2578125 C-1.5093471 0 -1.5093471 0 0 0 Z " fill="#61D7FD" transform="translate(298,383)"/>
<path d="M0 0 C-0.99 1.485 -0.99 1.485 -2 3 C-3.32 2.67 -4.64 2.34 -6 2 C-6.33 2.99 -6.66 3.98 -7 5 C-7.68707031 5.12117188 -8.37414062 5.24234375 -9.08203125 5.3671875 C-9.98308594 5.53476562 -10.88414062 5.70234375 -11.8125 5.875 C-13.15248047 6.11863281 -13.15248047 6.11863281 -14.51953125 6.3671875 C-17.22727846 6.91188449 -17.22727846 6.91188449 -20 9 C-19.71125 9.62648438 -19.4225 10.25296875 -19.125 10.8984375 C-18.75375 11.71570313 -18.3825 12.53296875 -18 13.375 C-17.443125 14.59316406 -17.443125 14.59316406 -16.875 15.8359375 C-16 18 -16 18 -16 20 C-15.46375 20.226875 -14.9275 20.45375 -14.375 20.6875 C-8.70958061 23.81838966 -2.33702007 29.09178747 -0.1875 35.375 C-0.0946875 36.179375 -0.0946875 36.179375 0 37 C-1.32 37 -2.64 37 -4 37 C-6 34.91796875 -6 34.91796875 -8 32.1875 C-10.46418075 28.85219285 -12.68786595 26.46192107 -16 24 C-16 23.34 -16 22.68 -16 22 C-16.556875 21.814375 -17.11375 21.62875 -17.6875 21.4375 C-21.02200247 19.36470117 -23.13233857 16.4368032 -25 13 C-25 12.01 -25 11.02 -25 10 C-26.65 10 -28.3 10 -30 10 C-25.36858591 6.91239061 -20.19137678 5.26985477 -15 3.3125 C-13.89398438 2.88388672 -12.78796875 2.45527344 -11.6484375 2.01367188 C-10.58882812 1.61341797 -9.52921875 1.21316406 -8.4375 0.80078125 C-7.46683594 0.43122314 -6.49617188 0.06166504 -5.49609375 -0.3190918 C-3 -1 -3 -1 0 0 Z " fill="#43AAFB" transform="translate(241,284)"/>
<path d="M0 0 C4.61508322 1.42586666 7.50828918 4.05388224 10.8125 7.4375 C11.31458984 7.92798828 11.81667969 8.41847656 12.33398438 8.92382812 C16 12.61977041 16 12.61977041 16 16 C17.11375 16.309375 17.11375 16.309375 18.25 16.625 C21.82371889 18.41185945 23.06522496 20.56039993 25 24 C25 24.66 25 25.32 25 26 C22.4909447 24.96177022 21.16815013 24.233948 19.5625 22 C18.13765763 19.79631214 18.13765763 19.79631214 15.5625 19.1875 C12.24042524 17.64800194 11.53137548 15.85123722 9.9140625 12.67578125 C9.02744508 10.86284806 9.02744508 10.86284806 7.25 9.25 C6.63125 8.63125 6.63125 8.63125 6 8 C6 7.01 6 6.02 6 5 C5.38125 4.731875 4.7625 4.46375 4.125 4.1875 C2 3 2 3 0 0 Z " fill="#45A6FC" transform="translate(248,334)"/>
<path d="M0 0 C3.77644247 0.43574336 5.59421376 2.41191229 8.34765625 4.87109375 C10.96200416 6.6572558 13.91347976 6.58450689 17 7 C18.4375 9.0625 18.4375 9.0625 19 11 C18.34 11.66 17.68 12.32 17 13 C16.67 12.67 16.34 12.34 16 12 C15.236875 12.04125 14.47375 12.0825 13.6875 12.125 C10.41728826 11.97289713 9.49633022 11.0282683 7 9 C6.13375 8.67 5.2675 8.34 4.375 8 C2 7 2 7 0 4 C0 2.68 0 1.36 0 0 Z " fill="#41A5FC" transform="translate(281,372)"/>
<path d="M0 0 C0.33 0 0.66 0 1 0 C2.03818992 5.14111649 2.18337313 10.09200758 2.1875 15.3125 C2.19974609 16.11623047 2.21199219 16.91996094 2.22460938 17.74804688 C2.23826666 23.40671593 1.44681393 28.53325662 0 34 C-0.99 33.34 -1.98 32.68 -3 32 C-2.8453125 30.87980469 -2.690625 29.75960938 -2.53125 28.60546875 C-1.83254168 23.01949254 -1.63073713 17.4235595 -1.39453125 11.80273438 C-1.20741005 7.77317603 -0.96215159 3.9368036 0 0 Z " fill="#2B6EBC" transform="translate(442,262)"/>
<path d="M0 0 C-0.99 1.485 -0.99 1.485 -2 3 C-3.32 2.67 -4.64 2.34 -6 2 C-6.33 2.99 -6.66 3.98 -7 5 C-8.01320312 5.19916016 -8.01320312 5.19916016 -9.046875 5.40234375 C-9.93890625 5.57894531 -10.8309375 5.75554687 -11.75 5.9375 C-12.63171875 6.11152344 -13.5134375 6.28554688 -14.421875 6.46484375 C-16.63235053 6.92368488 -18.81512068 7.43336074 -21 8 C-21 8.66 -21 9.32 -21 10 C-21.99 10 -22.98 10 -24 10 C-24.33 10.66 -24.66 11.32 -25 12 C-25 11.34 -25 10.68 -25 10 C-26.65 10 -28.3 10 -30 10 C-25.36858591 6.91239061 -20.19137678 5.26985477 -15 3.3125 C-13.89398438 2.88388672 -12.78796875 2.45527344 -11.6484375 2.01367188 C-10.58882812 1.61341797 -9.52921875 1.21316406 -8.4375 0.80078125 C-7.46683594 0.43122314 -6.49617188 0.06166504 -5.49609375 -0.3190918 C-3 -1 -3 -1 0 0 Z " fill="#52ADD4" transform="translate(241,284)"/>
<path d="M0 0 C6.06177962 9.09266943 4.23277604 24.43455429 4 35 C3.01 35.495 3.01 35.495 2 36 C1.67 26.76 1.34 17.52 1 8 C0.34 8 -0.32 8 -1 8 C-1.125 2.25 -1.125 2.25 0 0 Z " fill="#3D9EAF" transform="translate(462,86)"/>
<path d="M0 0 C5.23297026 2.04213474 7.91083029 6.53078883 11 11 C10.01 11 9.02 11 8 11 C6.28859531 9.03814584 4.62126675 7.03697617 3 5 C0.75487738 3.87743869 -0.51456649 3.86586238 -3 3.875 C-3.70125 3.87242187 -4.4025 3.86984375 -5.125 3.8671875 C-7.09153775 3.88622764 -7.09153775 3.88622764 -9 5 C-9 3.68 -9 2.36 -9 1 C-5.93570224 -0.53214888 -3.3834358 -0.22938548 0 0 Z " fill="#337ED0" transform="translate(407,204)"/>
<path d="M0 0 C1.32 0 2.64 0 4 0 C5.45703125 2.19921875 5.45703125 2.19921875 7 5 C8.51663081 6.64760066 10.08091699 8.25248462 11.6875 9.8125 C12.49574219 10.60269531 13.30398437 11.39289063 14.13671875 12.20703125 C14.75160156 12.79871094 15.36648437 13.39039063 16 14 C15.34 14.66 14.68 15.32 14 16 C12.22273722 14.27705085 10.45330337 12.54712904 8.6875 10.8125 C8.18798828 10.32974609 7.68847656 9.84699219 7.17382812 9.34960938 C4.23648806 6.45117447 1.94921782 3.63898344 0 0 Z " fill="#5CC6CA" transform="translate(201,483)"/>
<path d="M0 0 C0.66 0 1.32 0 2 0 C2.66271246 2.81652795 2.99413864 5.09378182 2.8125 8 C3.05044505 11.8071208 4.4336944 13.27330029 7 16 C4 16 4 16 2.61328125 14.71484375 C-0.56709735 10.3692814 -1.65377418 7.55708052 -1 2 C-0.67 1.34 -0.34 0.68 0 0 Z " fill="#38A6C1" transform="translate(90,343)"/>
<path d="M0 0 C6.40882917 -0.48368522 6.40882917 -0.48368522 9.0625 1.6875 C10 4 10 4 9.1875 6.75 C8.795625 7.4925 8.40375 8.235 8 9 C5.06799526 6.14723863 2.35684596 3.34920216 0 0 Z " fill="#49D6E6" transform="translate(163,246)"/>
<path d="M0 0 C1.5625 1.125 1.5625 1.125 3 3 C3 5.9375 3 5.9375 2 9 C-0.5625 11.375 -0.5625 11.375 -3 13 C-3.33 11.68 -3.66 10.36 -4 9 C-2.68 8.67 -1.36 8.34 0 8 C0 7.01 0 6.02 0 5 C-0.66 5 -1.32 5 -2 5 C-2 4.01 -2 3.02 -2 2 C-1.34 2 -0.68 2 0 2 C0 1.34 0 0.68 0 0 Z " fill="#4FC2CD" transform="translate(371,475)"/>
<path d="M0 0 C0.99 0.33 1.98 0.66 3 1 C3 1.66 3 2.32 3 3 C3.66 3 4.32 3 5 3 C6.25664978 5.90600261 7 7.79604584 7 11 C5.125 10.6875 5.125 10.6875 3 10 C0.70366176 6.55549263 0.45983515 4.06187717 0 0 Z " fill="#43A4FB" transform="translate(241,322)"/>
<path d="M0 0 C-1.86882253 3.73764507 -6.34287996 5.23916443 -10 7 C-9.67226629 3.96846314 -9.35865103 2.38426897 -7.25 0.125 C-4.40525065 -1.29737468 -2.98383376 -0.91172698 0 0 Z " fill="#3EC3CF" transform="translate(123,176)"/>
<path d="M0 0 C-0.99 1.485 -0.99 1.485 -2 3 C-3.32 2.67 -4.64 2.34 -6 2 C-6.33 2.99 -6.66 3.98 -7 5 C-9.31 4.67 -11.62 4.34 -14 4 C-11.58592302 2.39061535 -9.65955563 1.34509262 -7 0.3125 C-5.9790625 -0.09548828 -5.9790625 -0.09548828 -4.9375 -0.51171875 C-3 -1 -3 -1 0 0 Z " fill="#4793DD" transform="translate(241,284)"/>
<path d="M0 0 C2.31 0.33 4.62 0.66 7 1 C7 2.32 7 3.64 7 5 C7.66 5.33 8.32 5.66 9 6 C8.67 6.99 8.34 7.98 8 9 C6.84775972 8.07038578 5.70340824 7.1309875 4.5625 6.1875 C3.60537109 5.40439453 3.60537109 5.40439453 2.62890625 4.60546875 C1 3 1 3 0 0 Z " fill="#47DAE9" transform="translate(131,207)"/>
<path d="M0 0 C0.99 0.33 1.98 0.66 3 1 C1.1875 3 1.1875 3 -1 5 C-1.99 5 -2.98 5 -4 5 C-4.66 6.32 -5.32 7.64 -6 9 C-6.99 8.01 -7.98 7.02 -9 6 C-7.57140593 4.96674014 -6.13177617 3.94872366 -4.6875 2.9375 C-3.88699219 2.36902344 -3.08648437 1.80054688 -2.26171875 1.21484375 C-1.51535156 0.81394531 -0.76898438 0.41304687 0 0 Z " fill="#3C87E1" transform="translate(370,225)"/>
<path d="M0 0 C-2.26568725 2.26568725 -3.43233985 2.55280451 -6.5 3.25 C-7.2940625 3.44078125 -8.088125 3.6315625 -8.90625 3.828125 C-9.5971875 3.88484375 -10.288125 3.9415625 -11 4 C-11.66 3.34 -12.32 2.68 -13 2 C-4.738041 -1.62870159 -4.738041 -1.62870159 0 0 Z " fill="#4CB4C9" transform="translate(355,84)"/>
<path d="M0 0 C0.33 0.99 0.66 1.98 1 3 C0.34 3.66 -0.32 4.32 -1 5 C-4.29714793 4.67028521 -5.6226839 4.3773161 -8 2 C-5.09399739 0.74335022 -3.20395416 0 0 0 Z " fill="#3F85DE" transform="translate(306,258)"/>
<path d="M0 0 C3.375 -0.125 3.375 -0.125 7 0 C7.66 0.66 8.32 1.32 9 2 C4.545 3.485 4.545 3.485 0 5 C0 3.35 0 1.7 0 0 Z " fill="#337ACC" transform="translate(372,349)"/>
<path d="M0 0 C2.96052484 3.36423277 3.92289822 6.69159287 5 11 C1.125 9.125 1.125 9.125 0 8 C-0.14115161 5.32941149 -0.04247107 2.67567762 0 0 Z " fill="#42A2FD" transform="translate(220,293)"/>
<path d="M0 0 C1.32 0.33 2.64 0.66 4 1 C4 1.66 4 2.32 4 3 C1.24921116 3.91692961 -0.35948913 4.10886083 -3.1875 4.0625 C-5.0746875 4.0315625 -5.0746875 4.0315625 -7 4 C-7.33 3.34 -7.66 2.68 -8 2 C-5.36 2 -2.72 2 0 2 C0 1.34 0 0.68 0 0 Z " fill="#48BDCC" transform="translate(192,266)"/>
<path d="M0 0 C0.66 1.32 1.32 2.64 2 4 C1.34 4.66 0.68 5.32 0 6 C-2.475 5.01 -2.475 5.01 -5 4 C-5 3.01 -5 2.02 -5 1 C-2 0 -2 0 0 0 Z " fill="#439FEC" transform="translate(298,379)"/>
<path d="M0 0 C0.33 0.66 0.66 1.32 1 2 C1.99 2 2.98 2 4 2 C4.99 3.98 5.98 5.96 7 8 C4 8 4 8 2.61328125 6.6875 C1.40885417 5.125 0.20442708 3.5625 -1 2 C-0.67 1.34 -0.34 0.68 0 0 Z " fill="#3CC2D6" transform="translate(143,414)"/>
<path d="M0 0 C1.4540625 0.0309375 1.4540625 0.0309375 2.9375 0.0625 C2.1875 2 2.1875 2 0.9375 4.0625 C-1.1875 4.8125 -1.1875 4.8125 -3.0625 5.0625 C-3.625 3.125 -3.625 3.125 -4.0625 1.0625 C-3.0625 0.0625 -3.0625 0.0625 0 0 Z " fill="#45CEF5" transform="translate(96.0625,340.9375)"/>
<path d="M0 0 C0.495 0.165 0.99 0.33 1.5 0.5 C7.05206673 1.61041335 12.49234054 1.10153189 18 0 C14.94034068 3.05965932 12.1497225 3.17589781 8 3.25 C6.700625 3.28867187 6.700625 3.28867187 5.375 3.328125 C2.57096806 2.94072585 1.73713218 2.17141522 0 0 Z " fill="#01070C" transform="translate(181,269)"/>
<path d="M0 0 C0.33 0.66 0.66 1.32 1 2 C2.32 2 3.64 2 5 2 C5.66 3.65 6.32 5.3 7 7 C4 7 4 7 1.8125 5.1875 C0 3 0 3 0 0 Z " fill="#3BBCCF" transform="translate(113,184)"/>
<path d="M0 0 C0.33 0.99 0.66 1.98 1 3 C-1.70879335 4.35439668 -4.00933268 4.06501451 -7 4 C-7 3.34 -7 2.68 -7 2 C-2.25 0 -2.25 0 0 0 Z " fill="#3985D8" transform="translate(327,250)"/>
<path d="M0 0 C0.99 0 1.98 0 3 0 C6.22265625 5.2734375 6.22265625 5.2734375 7 7 C6.67 7.66 6.34 8.32 6 9 C4.99406757 7.8803014 3.9954151 6.7540588 3 5.625 C2.443125 4.99851563 1.88625 4.37203125 1.3125 3.7265625 C0 2 0 2 0 0 Z " fill="#40C0CD" transform="translate(139,216)"/>
<path d="M0 0 C2.00720923 0.28674418 4.0085944 0.61866701 6 1 C6 1.99 6 2.98 6 4 C4.35 4.33 2.7 4.66 1 5 C0.34 3.68 -0.32 2.36 -1 1 C-0.67 0.67 -0.34 0.34 0 0 Z " fill="#3B99A8" transform="translate(348,204)"/>
<path d="M0 0 C0.33 0.66 0.66 1.32 1 2 C1.66 2 2.32 2 3 2 C3 2.66 3 3.32 3 4 C3.66 4 4.32 4 5 4 C5 5.32 5 6.64 5 8 C2 7 2 7 0 4 C0 2.68 0 1.36 0 0 Z " fill="#44B1F9" transform="translate(281,372)"/>
<path d="M0 0 C1.65 0.33 3.3 0.66 5 1 C1.55549263 3.29633824 -0.93812283 3.54016485 -5 4 C-5.33 3.34 -5.66 2.68 -6 2 C-4.02 2 -2.04 2 0 2 C0 1.34 0 0.68 0 0 Z " fill="#3379C5" transform="translate(367,353)"/>
<path d="M0 0 C-0.33 1.32 -0.66 2.64 -1 4 C-2.98 4 -4.96 4 -7 4 C-7 3.34 -7 2.68 -7 2 C-2.25 0 -2.25 0 0 0 Z " fill="#4290DE" transform="translate(270,271)"/>
<path d="M0 0 C5.75 0.75 5.75 0.75 8 3 C6.1875 4.0625 6.1875 4.0625 4 5 C3.01 4.67 2.02 4.34 1 4 C0.3125 1.9375 0.3125 1.9375 0 0 Z " fill="#28707B" transform="translate(258,240)"/>
<path d="M0 0 C0 0.99 0 1.98 0 3 C-2.875 3.625 -2.875 3.625 -6 4 C-6.66 3.34 -7.32 2.68 -8 2 C-5.09399739 0.74335022 -3.20395416 0 0 0 Z " fill="#42AFBE" transform="translate(132,171)"/>
<path d="M0 0 C0.99 0.99 1.98 1.98 3 3 C2.34 3 1.68 3 1 3 C1 3.99 1 4.98 1 6 C1.66 6 2.32 6 3 6 C3 6.99 3 7.98 3 9 C2.01 9.33 1.02 9.66 0 10 C0 6.7 0 3.4 0 0 Z " fill="#60E9FC" transform="translate(368,474)"/>
<path d="M0 0 C1.65 1.65 3.3 3.3 5 5 C3 5 1 5 -1 5 C-0.67 3.35 -0.34 1.7 0 0 Z " fill="#69CCDA" transform="translate(315,409)"/>
<path d="M0 0 C0 1.65 0 3.3 0 5 C-0.99 5.495 -0.99 5.495 -2 6 C-2 5.34 -2 4.68 -2 4 C-2.99 4 -3.98 4 -5 4 C-5 3.01 -5 2.02 -5 1 C-1.125 0 -1.125 0 0 0 Z " fill="#61C9EE" transform="translate(298,383)"/>
<path d="M0 0 C-2.91765 1.9451 -4.62537285 2.45276317 -8 3 C-8.33 2.34 -8.66 1.68 -9 1 C-5.57367167 -0.61798838 -3.61944899 -1.34053666 0 0 Z " fill="#4FC8D8" transform="translate(221,258)"/>
<path d="M0 0 C0.8353125 0.556875 0.8353125 0.556875 1.6875 1.125 C1.6875 1.785 1.6875 2.445 1.6875 3.125 C0.90375 2.939375 0.12 2.75375 -0.6875 2.5625 C-3.28339775 1.86537734 -3.28339775 1.86537734 -5.3125 3.125 C-5.9725 2.465 -6.6325 1.805 -7.3125 1.125 C-2.88173077 -1.09038462 -2.88173077 -1.09038462 0 0 Z " fill="#3FA1B2" transform="translate(369.3125,76.875)"/>
<path d="M0 0 C0.33 0 0.66 0 1 0 C1 5.94 1 11.88 1 18 C0.67 18 0.34 18 0 18 C0 12.06 0 6.12 0 0 Z " fill="#000100" transform="translate(445,269)"/>
<path d="M0 0 C-1 2 -1 2 -3.375 3.1875 C-6 4 -6 4 -9 3 C-5.55930376 0.70620251 -4.27709699 0 0 0 Z " fill="#4BB6CF" transform="translate(409,54)"/>
<path d="M0 0 C0.99 0.495 0.99 0.495 2 1 C1.67 1.66 1.34 2.32 1 3 C2.65 3.33 4.3 3.66 6 4 C5.01 4.99 4.02 5.98 3 7 C1.5 5.75 1.5 5.75 0 4 C0 2.68 0 1.36 0 0 Z " fill="#6AC8D7" transform="translate(174,448)"/>
<path d="M0 0 C1.32 0 2.64 0 4 0 C3.34 1.65 2.68 3.3 2 5 C1.01 5 0.02 5 -1 5 C-0.67 3.35 -0.34 1.7 0 0 Z " fill="#67D2EA" transform="translate(167,437)"/>
<path d="M0 0 C-2.64 0.66 -5.28 1.32 -8 2 C-8 1.01 -8 0.02 -8 -1 C-4.59745511 -2.2151946 -3.06748874 -1.86240388 0 0 Z " fill="#3782C2" transform="translate(334,370)"/>
<path d="M0 0 C0.66 0 1.32 0 2 0 C1.67 2.64 1.34 5.28 1 8 C0.01 7.34 -0.98 6.68 -2 6 C-1.34 4.02 -0.68 2.04 0 0 Z " fill="#2E68AC" transform="translate(441,288)"/>
<path d="M0 0 C0 0.66 0 1.32 0 2 C-0.763125 2.28875 -1.52625 2.5775 -2.3125 2.875 C-5.15029308 3.96269013 -5.15029308 3.96269013 -8 6 C-8.33 5.01 -8.66 4.02 -9 3 C-2.25 0 -2.25 0 0 0 Z " fill="#328BE9" transform="translate(229,289)"/>
<path d="M0 0 C0 0.66 0 1.32 0 2 C0.66 2.33 1.32 2.66 2 3 C0.02 3.33 -1.96 3.66 -4 4 C-4 3.34 -4 2.68 -4 2 C-4.66 1.67 -5.32 1.34 -6 1 C-3 0 -3 0 0 0 Z " fill="#397FD7" transform="translate(284,266)"/>
<path d="M0 0 C-4.625 2.125 -4.625 2.125 -8 1 C-3.375 -1.125 -3.375 -1.125 0 0 Z " fill="#01090C" transform="translate(297,231)"/>
<path d="M0 0 C-4.625 2.125 -4.625 2.125 -8 1 C-3.375 -1.125 -3.375 -1.125 0 0 Z " fill="#02080C" transform="translate(370,202)"/>
<path d="M0 0 C-4.625 2.125 -4.625 2.125 -8 1 C-3.375 -1.125 -3.375 -1.125 0 0 Z " fill="#00070A" transform="translate(386,196)"/>
<path d="M0 0 C2.31 0 4.62 0 7 0 C7 0.33 7 0.66 7 1 C4.69 1 2.38 1 0 1 C0 0.67 0 0.34 0 0 Z " fill="#000004" transform="translate(400,202)"/>
<path d="M0 0 C1.485 0.99 1.485 0.99 3 2 C2.67 2.66 2.34 3.32 2 4 C1.34 2.68 0.68 1.36 0 0 Z " fill="#010D0E" transform="translate(304,393)"/>
<path d="M0 0 C0.33 0 0.66 0 1 0 C1 1.98 1 3.96 1 6 C0.67 6 0.34 6 0 6 C0 4.02 0 2.04 0 0 Z " fill="#000102" transform="translate(87,346)"/>
<path d="M0 0 C0.99 0.33 1.98 0.66 3 1 C1.35 1.33 -0.3 1.66 -2 2 C-1.34 1.34 -0.68 0.68 0 0 Z " fill="#00090A" transform="translate(107,332)"/>
<path d="M0 0 C0.99 0.33 1.98 0.66 3 1 C1.35 1.33 -0.3 1.66 -2 2 C-1.34 1.34 -0.68 0.68 0 0 Z " fill="#00050D" transform="translate(112,330)"/>
<path d="M0 0 C0.99 0.33 1.98 0.66 3 1 C1.35 1.33 -0.3 1.66 -2 2 C-1.34 1.34 -0.68 0.68 0 0 Z " fill="#000703" transform="translate(153,314)"/>
<path d="M0 0 C0.99 0.33 1.98 0.66 3 1 C1.35 1.33 -0.3 1.66 -2 2 C-1.34 1.34 -0.68 0.68 0 0 Z " fill="#00080D" transform="translate(158,312)"/>
<path d="M0 0 C0.99 0.33 1.98 0.66 3 1 C1.35 1.33 -0.3 1.66 -2 2 C-1.34 1.34 -0.68 0.68 0 0 Z " fill="#000615" transform="translate(168,308)"/>
<path d="M0 0 C0.99 0.33 1.98 0.66 3 1 C1.35 1.33 -0.3 1.66 -2 2 C-1.34 1.34 -0.68 0.68 0 0 Z " fill="#000509" transform="translate(173,306)"/>
<path d="M0 0 C0.99 0.33 1.98 0.66 3 1 C1.35 1.33 -0.3 1.66 -2 2 C-1.34 1.34 -0.68 0.68 0 0 Z " fill="#00070D" transform="translate(178,304)"/>
<path d="M0 0 C0.99 0.33 1.98 0.66 3 1 C1.35 1.33 -0.3 1.66 -2 2 C-1.34 1.34 -0.68 0.68 0 0 Z " fill="#010609" transform="translate(183,302)"/>
<path d="M0 0 C0.99 0.33 1.98 0.66 3 1 C1.35 1.33 -0.3 1.66 -2 2 C-1.34 1.34 -0.68 0.68 0 0 Z " fill="#000907" transform="translate(188,300)"/>
<path d="M0 0 C0.99 0.33 1.98 0.66 3 1 C1.35 1.33 -0.3 1.66 -2 2 C-1.34 1.34 -0.68 0.68 0 0 Z " fill="#000C0F" transform="translate(196,297)"/>
<path d="M0 0 C0.99 0.33 1.98 0.66 3 1 C1.35 1.33 -0.3 1.66 -2 2 C-1.34 1.34 -0.68 0.68 0 0 Z " fill="#010806" transform="translate(213,290)"/>
<path d="M0 0 C0.99 0.33 1.98 0.66 3 1 C1.35 1.33 -0.3 1.66 -2 2 C-1.34 1.34 -0.68 0.68 0 0 Z " fill="#000607" transform="translate(224,286)"/>
<path d="M0 0 C0.99 0.33 1.98 0.66 3 1 C1.35 1.33 -0.3 1.66 -2 2 C-1.34 1.34 -0.68 0.68 0 0 Z " fill="#03080B" transform="translate(232,283)"/>
<path d="M0 0 C0.99 0.33 1.98 0.66 3 1 C1.35 1.33 -0.3 1.66 -2 2 C-1.34 1.34 -0.68 0.68 0 0 Z " fill="#010307" transform="translate(237,281)"/>
<path d="M0 0 C0.99 0.33 1.98 0.66 3 1 C1.35 1.33 -0.3 1.66 -2 2 C-1.34 1.34 -0.68 0.68 0 0 Z " fill="#02050E" transform="translate(267,269)"/>
<path d="M0 0 C0.99 0.33 1.98 0.66 3 1 C1.35 1.33 -0.3 1.66 -2 2 C-1.34 1.34 -0.68 0.68 0 0 Z " fill="#00030B" transform="translate(283,263)"/>
<path d="M0 0 C0.99 0.33 1.98 0.66 3 1 C1.35 1.33 -0.3 1.66 -2 2 C-1.34 1.34 -0.68 0.68 0 0 Z " fill="#00060E" transform="translate(213,262)"/>
<path d="M0 0 C0.99 0.33 1.98 0.66 3 1 C1.35 1.33 -0.3 1.66 -2 2 C-1.34 1.34 -0.68 0.68 0 0 Z " fill="#040C10" transform="translate(218,260)"/>
<path d="M0 0 C0.99 0.33 1.98 0.66 3 1 C1.35 1.33 -0.3 1.66 -2 2 C-1.34 1.34 -0.68 0.68 0 0 Z " fill="#00050D" transform="translate(300,257)"/>
<path d="M0 0 C0.99 0.33 1.98 0.66 3 1 C1.35 1.33 -0.3 1.66 -2 2 C-1.34 1.34 -0.68 0.68 0 0 Z " fill="#01090C" transform="translate(231,255)"/>
<path d="M0 0 C0.99 0.33 1.98 0.66 3 1 C1.35 1.33 -0.3 1.66 -2 2 C-1.34 1.34 -0.68 0.68 0 0 Z " fill="#010508" transform="translate(311,253)"/>
<path d="M0 0 C0.99 0.33 1.98 0.66 3 1 C1.35 1.33 -0.3 1.66 -2 2 C-1.34 1.34 -0.68 0.68 0 0 Z " fill="#01020B" transform="translate(319,250)"/>
<path d="M0 0 C0.99 0.33 1.98 0.66 3 1 C1.35 1.33 -0.3 1.66 -2 2 C-1.34 1.34 -0.68 0.68 0 0 Z " fill="#00080D" transform="translate(241,251)"/>
<path d="M0 0 C0.99 0.33 1.98 0.66 3 1 C1.35 1.33 -0.3 1.66 -2 2 C-1.34 1.34 -0.68 0.68 0 0 Z " fill="#00040F" transform="translate(246,249)"/>
<path d="M0 0 C0.99 0.33 1.98 0.66 3 1 C1.35 1.33 -0.3 1.66 -2 2 C-1.34 1.34 -0.68 0.68 0 0 Z " fill="#000709" transform="translate(251,247)"/>
<path d="M0 0 C0.99 0.33 1.98 0.66 3 1 C1.35 1.33 -0.3 1.66 -2 2 C-1.34 1.34 -0.68 0.68 0 0 Z " fill="#000608" transform="translate(256,245)"/>
<path d="M0 0 C0.99 0.33 1.98 0.66 3 1 C1.35 1.33 -0.3 1.66 -2 2 C-1.34 1.34 -0.68 0.68 0 0 Z " fill="#00020E" transform="translate(331,245)"/>
<path d="M0 0 C0.99 0.33 1.98 0.66 3 1 C1.35 1.33 -0.3 1.66 -2 2 C-1.34 1.34 -0.68 0.68 0 0 Z " fill="#00070D" transform="translate(268,240)"/>
<path d="M0 0 C0.99 0.33 1.98 0.66 3 1 C1.35 1.33 -0.3 1.66 -2 2 C-1.34 1.34 -0.68 0.68 0 0 Z " fill="#010A10" transform="translate(281,235)"/>
<path d="M0 0 C0.99 0.33 1.98 0.66 3 1 C1.35 1.33 -0.3 1.66 -2 2 C-1.34 1.34 -0.68 0.68 0 0 Z " fill="#000410" transform="translate(286,233)"/>
<path d="M0 0 C0.99 0.33 1.98 0.66 3 1 C1.35 1.33 -0.3 1.66 -2 2 C-1.34 1.34 -0.68 0.68 0 0 Z " fill="#00080C" transform="translate(310,224)"/>
<path d="M0 0 C0.99 0.33 1.98 0.66 3 1 C1.35 1.33 -0.3 1.66 -2 2 C-1.34 1.34 -0.68 0.68 0 0 Z " fill="#000A15" transform="translate(315,222)"/>
<path d="M0 0 C0.99 0.33 1.98 0.66 3 1 C1.35 1.33 -0.3 1.66 -2 2 C-1.34 1.34 -0.68 0.68 0 0 Z " fill="#000708" transform="translate(332,215)"/>
<path d="M0 0 C0.99 0.33 1.98 0.66 3 1 C1.35 1.33 -0.3 1.66 -2 2 C-1.34 1.34 -0.68 0.68 0 0 Z " fill="#02090D" transform="translate(344,210)"/>
<path d="M0 0 C0.99 0.33 1.98 0.66 3 1 C1.68 1.33 0.36 1.66 -1 2 C-0.67 1.34 -0.34 0.68 0 0 Z " fill="#000714" transform="translate(94,338)"/>
<path d="M0 0 C0.33 0 0.66 0 1 0 C1 1.65 1 3.3 1 5 C0.67 5 0.34 5 0 5 C0 3.35 0 1.7 0 0 Z " fill="#000005" transform="translate(467,112)"/>
<path d="M0 0 C0.99 0.495 0.99 0.495 2 1 C1.67 1.66 1.34 2.32 1 3 C0.67 2.01 0.34 1.02 0 0 Z " fill="#000D06" transform="translate(197,480)"/>
<path d="M0 0 C1 4 1 4 1 4 Z " fill="#020201" transform="translate(375,478)"/>
<path d="M0 0 C0.99 0.495 0.99 0.495 2 1 C1.67 1.66 1.34 2.32 1 3 C0.67 2.01 0.34 1.02 0 0 Z " fill="#000406" transform="translate(179,459)"/>
<path d="M0 0 C0.99 0.495 0.99 0.495 2 1 C1.67 1.66 1.34 2.32 1 3 C0.67 2.01 0.34 1.02 0 0 Z " fill="#010409" transform="translate(339,434)"/>
<path d="M0 0 C0.99 0.495 0.99 0.495 2 1 C1.67 1.66 1.34 2.32 1 3 C0.67 2.01 0.34 1.02 0 0 Z " fill="#000914" transform="translate(332,426)"/>
<path d="M0 0 C0.99 0.495 0.99 0.495 2 1 C1.67 1.66 1.34 2.32 1 3 C0.67 2.01 0.34 1.02 0 0 Z " fill="#00080A" transform="translate(316,407)"/>
<path d="M0 0 C0.99 0.495 0.99 0.495 2 1 C1.67 1.66 1.34 2.32 1 3 C0.67 2.01 0.34 1.02 0 0 Z " fill="#000F15" transform="translate(312,402)"/>
<path d="M0 0 C0.66 0.33 1.32 0.66 2 1 C1.01 1 0.02 1 -1 1 C-0.67 0.67 -0.34 0.34 0 0 Z " fill="#01040F" transform="translate(411,334)"/>
<path d="M0 0 C0.66 0.33 1.32 0.66 2 1 C1.01 1 0.02 1 -1 1 C-0.67 0.67 -0.34 0.34 0 0 Z " fill="#030512" transform="translate(421,326)"/>
<path d="M0 0 C1 4 1 4 1 4 Z " fill="#000308" transform="translate(444,288)"/>
<path d="M0 0 C1 4 1 4 1 4 Z " fill="#000705" transform="translate(444,263)"/>
<path d="M0 0 C1 4 1 4 1 4 Z " fill="#030103" transform="translate(443,258)"/>
<path d="M0 0 C0.66 0.33 1.32 0.66 2 1 C1.01 1 0.02 1 -1 1 C-0.67 0.67 -0.34 0.34 0 0 Z " fill="#000111" transform="translate(393,207)"/>
<path d="M0 0 C0.66 0.33 1.32 0.66 2 1 C1.01 1 0.02 1 -1 1 C-0.67 0.67 -0.34 0.34 0 0 Z " fill="#00060A" transform="translate(432,171)"/>
<path d="M0 0 C0.66 0.33 1.32 0.66 2 1 C1.01 1 0.02 1 -1 1 C-0.67 0.67 -0.34 0.34 0 0 Z " fill="#000F15" transform="translate(435,169)"/>
<path d="M0 0 C0.66 0.33 1.32 0.66 2 1 C1.01 1 0.02 1 -1 1 C-0.67 0.67 -0.34 0.34 0 0 Z " fill="#000411" transform="translate(438,167)"/>
<path d="M0 0 C1 4 1 4 1 4 Z " fill="#010408" transform="translate(466,96)"/>
<path d="" fill="#000610" transform="translate(0,0)"/>
<path d="M0 0 C3 1 3 1 3 1 Z " fill="#000109" transform="translate(305,381)"/>
<path d="M0 0 C3 1 3 1 3 1 Z " fill="#02070A" transform="translate(310,379)"/>
<path d="M0 0 C3 1 3 1 3 1 Z " fill="#000310" transform="translate(318,376)"/>
<path d="M0 0 C3 1 3 1 3 1 Z " fill="#000714" transform="translate(323,374)"/>
<path d="M0 0 C3 1 3 1 3 1 Z " fill="#02030C" transform="translate(326,373)"/>
<path d="M0 0 C3 1 3 1 3 1 Z " fill="#01070F" transform="translate(331,371)"/>
<path d="M0 0 C3 1 3 1 3 1 Z " fill="#010103" transform="translate(336,369)"/>
<path d="M0 0 C3 1 3 1 3 1 Z " fill="#010710" transform="translate(341,367)"/>
<path d="M0 0 C3 1 3 1 3 1 Z " fill="#00020E" transform="translate(349,364)"/>
<path d="M0 0 C3 1 3 1 3 1 Z " fill="#000110" transform="translate(354,362)"/>
<path d="M0 0 C3 1 3 1 3 1 Z " fill="#00030E" transform="translate(359,360)"/>
<path d="M0 0 C3 1 3 1 3 1 Z " fill="#000815" transform="translate(364,358)"/>
<path d="M0 0 C3 1 3 1 3 1 Z " fill="#000511" transform="translate(369,356)"/>
<path d="M0 0 C3 1 3 1 3 1 Z " fill="#000409" transform="translate(374,354)"/>
<path d="M0 0 C3 1 3 1 3 1 Z " fill="#000407" transform="translate(381,351)"/>
<path d="M0 0 C3 1 3 1 3 1 Z " fill="#00070E" transform="translate(115,329)"/>
<path d="M0 0 C3 1 3 1 3 1 Z " fill="#001112" transform="translate(118,328)"/>
<path d="M0 0 C3 1 3 1 3 1 Z " fill="#00040A" transform="translate(138,320)"/>
<path d="M0 0 C3 1 3 1 3 1 Z " fill="#03040D" transform="translate(143,318)"/>
<path d="M0 0 C3 1 3 1 3 1 Z " fill="#00030C" transform="translate(161,311)"/>
<path d="M0 0 C3 1 3 1 3 1 Z " fill="#000708" transform="translate(191,299)"/>
<path d="M0 0 C3 1 3 1 3 1 Z " fill="#000306" transform="translate(201,295)"/>
<path d="M0 0 C3 1 3 1 3 1 Z " fill="#00080D" transform="translate(206,293)"/>
<path d="M0 0 C3 1 3 1 3 1 Z " fill="#000811" transform="translate(216,289)"/>
<path d="M0 0 C3 1 3 1 3 1 Z " fill="#050A08" transform="translate(219,288)"/>
<path d="M0 0 C3 1 3 1 3 1 Z " fill="#00060E" transform="translate(227,285)"/>
<path d="M0 0 C3 1 3 1 3 1 Z " fill="#010910" transform="translate(240,280)"/>
<path d="M0 0 C3 1 3 1 3 1 Z " fill="#050609" transform="translate(245,278)"/>
<path d="M0 0 C3 1 3 1 3 1 Z " fill="#03060F" transform="translate(250,276)"/>
<path d="M0 0 C3 1 3 1 3 1 Z " fill="#04060F" transform="translate(255,274)"/>
<path d="M0 0 C3 1 3 1 3 1 Z " fill="#000714" transform="translate(260,272)"/>
<path d="M0 0 C3 1 3 1 3 1 Z " fill="#020B11" transform="translate(270,268)"/>
<path d="M0 0 C3 1 3 1 3 1 Z " fill="#050705" transform="translate(275,266)"/>
<path d="M0 0 C3 1 3 1 3 1 Z " fill="#010A0D" transform="translate(278,265)"/>
<path d="M0 0 C3 1 3 1 3 1 Z " fill="#000107" transform="translate(286,262)"/>
<path d="M0 0 C3 1 3 1 3 1 Z " fill="#010611" transform="translate(289,261)"/>
<path d="M0 0 C3 1 3 1 3 1 Z " fill="#010A10" transform="translate(292,260)"/>
<path d="M0 0 C3 1 3 1 3 1 Z " fill="#00040E" transform="translate(295,259)"/>
<path d="M0 0 C3 1 3 1 3 1 Z " fill="#030207" transform="translate(303,256)"/>
<path d="M0 0 C3 1 3 1 3 1 Z " fill="#00040B" transform="translate(306,255)"/>
<path d="M0 0 C3 1 3 1 3 1 Z " fill="#00040E" transform="translate(314,252)"/>
<path d="M0 0 C3 1 3 1 3 1 Z " fill="#000112" transform="translate(324,248)"/>
<path d="M0 0 C3 1 3 1 3 1 Z " fill="#000D13" transform="translate(305,226)"/>
<path d="" fill="#000405" transform="translate(0,0)"/>
<path d="M0 0 C3 1 3 1 3 1 Z " fill="#000303" transform="translate(118,173)"/>
<path d="M0 0 C3 1 3 1 3 1 Z " fill="#010107" transform="translate(121,172)"/>
<path d="M0 0 C3 1 3 1 3 1 Z " fill="#000504" transform="translate(124,171)"/>
<path d="M0 0 C3 1 3 1 3 1 Z " fill="#00070F" transform="translate(129,169)"/>
<path d="M0 0 C3 1 3 1 3 1 Z " fill="#010305" transform="translate(132,168)"/>
<path d="M0 0 C3 1 3 1 3 1 Z " fill="#00040B" transform="translate(152,160)"/>
<path d="" fill="#000203" transform="translate(0,0)"/>
<path d="" fill="#000000" transform="translate(0,0)"/>
<path d="" fill="#00060B" transform="translate(0,0)"/>
<path d="" fill="#00040F" transform="translate(0,0)"/>
<path d="" fill="#000605" transform="translate(0,0)"/>
<path d="" fill="#000B0E" transform="translate(0,0)"/>
<path d="" fill="#000407" transform="translate(0,0)"/>
<path d="" fill="#04020A" transform="translate(0,0)"/>
<path d="" fill="#000811" transform="translate(0,0)"/>
<path d="" fill="#000714" transform="translate(0,0)"/>
<path d="" fill="#000912" transform="translate(0,0)"/>
<path d="" fill="#000F1A" transform="translate(0,0)"/>
<path d="" fill="#000103" transform="translate(0,0)"/>
<path d="" fill="#000814" transform="translate(0,0)"/>
<path d="" fill="#000F15" transform="translate(0,0)"/>
<path d="" fill="#00070D" transform="translate(0,0)"/>
<path d="" fill="#000B13" transform="translate(0,0)"/>
<path d="" fill="#00071B" transform="translate(0,0)"/>
<path d="" fill="#000813" transform="translate(0,0)"/>
<path d="M0 0 C2 1 2 1 2 1 Z " fill="#00061C" transform="translate(303,382)"/>
<path d="M0 0 C2 1 2 1 2 1 Z " fill="#000007" transform="translate(308,380)"/>
<path d="M0 0 C2 1 2 1 2 1 Z " fill="#00020D" transform="translate(313,378)"/>
<path d="M0 0 C2 1 2 1 2 1 Z " fill="#010205" transform="translate(316,377)"/>
<path d="M0 0 C2 1 2 1 2 1 Z " fill="#030608" transform="translate(321,375)"/>
<path d="M0 0 C2 1 2 1 2 1 Z " fill="#000809" transform="translate(329,372)"/>
<path d="M0 0 C2 1 2 1 2 1 Z " fill="#01070D" transform="translate(334,370)"/>
<path d="M0 0 C2 1 2 1 2 1 Z " fill="#000009" transform="translate(339,368)"/>
<path d="M0 0 C2 1 2 1 2 1 Z " fill="#000108" transform="translate(344,366)"/>
<path d="M0 0 C2 1 2 1 2 1 Z " fill="#000000" transform="translate(347,365)"/>
<path d="M0 0 C2 1 2 1 2 1 Z " fill="#07040F" transform="translate(352,363)"/>
<path d="M0 0 C2 1 2 1 2 1 Z " fill="#00010B" transform="translate(357,361)"/>
<path d="M0 0 C2 1 2 1 2 1 Z " fill="#00020D" transform="translate(362,359)"/>
<path d="M0 0 C2 1 2 1 2 1 Z " fill="#000411" transform="translate(367,357)"/>
<path d="M0 0 C2 1 2 1 2 1 Z " fill="#000202" transform="translate(372,355)"/>
<path d="M0 0 C2 1 2 1 2 1 Z " fill="#030405" transform="translate(377,353)"/>
<path d="M0 0 C2 1 2 1 2 1 Z " fill="#00010B" transform="translate(379,352)"/>
<path d="M0 0 C2 1 2 1 2 1 Z " fill="#00010F" transform="translate(384,350)"/>
<path d="M0 0 C2 1 2 1 2 1 Z " fill="#00040B" transform="translate(386,349)"/>
<path d="M0 0 C2 1 2 1 2 1 Z " fill="#00020A" transform="translate(388,348)"/>
<path d="M0 0 C2 1 2 1 2 1 Z " fill="#000306" transform="translate(390,347)"/>
<path d="M0 0 C2 1 2 1 2 1 Z " fill="#000815" transform="translate(392,346)"/>
<path d="M0 0 C2 1 2 1 2 1 Z " fill="#00040B" transform="translate(394,345)"/>
<path d="M0 0 C2 1 2 1 2 1 Z " fill="#00030A" transform="translate(396,344)"/>
<path d="M0 0 C2 1 2 1 2 1 Z " fill="#000311" transform="translate(399,342)"/>
<path d="M0 0 C2 1 2 1 2 1 Z " fill="#010517" transform="translate(401,341)"/>
<path d="M0 0 C2 1 2 1 2 1 Z " fill="#000A10" transform="translate(91,340)"/>
<path d="M0 0 C2 1 2 1 2 1 Z " fill="#00020C" transform="translate(404,339)"/>
<path d="M0 0 C2 1 2 1 2 1 Z " fill="#000512" transform="translate(407,337)"/>
<path d="M0 0 C2 1 2 1 2 1 Z " fill="#000916" transform="translate(97,337)"/>
<path d="M0 0 C2 1 2 1 2 1 Z " fill="#000D1C" transform="translate(99,336)"/>
<path d="M0 0 C2 1 2 1 2 1 Z " fill="#00060B" transform="translate(101,335)"/>
<path d="M0 0 C2 1 2 1 2 1 Z " fill="#00090E" transform="translate(103,334)"/>
<path d="M0 0 C2 1 2 1 2 1 Z " fill="#000619" transform="translate(415,331)"/>
<path d="M0 0 C2 1 2 1 2 1 Z " fill="#000508" transform="translate(136,321)"/>
<path d="M0 0 C2 1 2 1 2 1 Z " fill="#000609" transform="translate(141,319)"/>
<path d="" fill="#000803" transform="translate(0,0)"/>
<path d="" fill="#000404" transform="translate(0,0)"/>
<path d="M0 0 C2 1 2 1 2 1 Z " fill="#040817" transform="translate(164,310)"/>
<path d="" fill="#000001" transform="translate(0,0)"/>
<path d="" fill="#00040C" transform="translate(0,0)"/>
<path d="" fill="#000406" transform="translate(0,0)"/>
<path d="" fill="#00050D" transform="translate(0,0)"/>
<path d="" fill="#000511" transform="translate(0,0)"/>
<path d="M0 0 C2 1 2 1 2 1 Z " fill="#010C11" transform="translate(199,296)"/>
<path d="" fill="#000303" transform="translate(0,0)"/>
<path d="M0 0 C2 1 2 1 2 1 Z " fill="#010908" transform="translate(204,294)"/>
<path d="M0 0 C2 1 2 1 2 1 Z " fill="#00020A" transform="translate(209,292)"/>
<path d="M0 0 C2 1 2 1 2 1 Z " fill="#00050C" transform="translate(243,279)"/>
<path d="M0 0 C2 1 2 1 2 1 Z " fill="#000612" transform="translate(248,277)"/>
<path d="M0 0 C2 1 2 1 2 1 Z " fill="#00070D" transform="translate(253,275)"/>
<path d="M0 0 C2 1 2 1 2 1 Z " fill="#00030F" transform="translate(258,273)"/>
<path d="M0 0 C2 1 2 1 2 1 Z " fill="#00010C" transform="translate(263,271)"/>
<path d="M0 0 C2 1 2 1 2 1 Z " fill="#00050B" transform="translate(199,268)"/>
<path d="M0 0 C2 1 2 1 2 1 Z " fill="#000905" transform="translate(273,267)"/>
<path d="" fill="#000F1E" transform="translate(0,0)"/>
<path d="" fill="#000508" transform="translate(0,0)"/>
<path d="" fill="#000106" transform="translate(0,0)"/>
<path d="" fill="#000000" transform="translate(0,0)"/>
<path d="" fill="#00020A" transform="translate(0,0)"/>
<path d="" fill="#00090D" transform="translate(0,0)"/>
<path d="M0 0 C2 1 2 1 2 1 Z " fill="#00020A" transform="translate(322,249)"/>
<path d="M0 0 C2 1 2 1 2 1 Z " fill="#010515" transform="translate(327,247)"/>
<path d="" fill="#00050B" transform="translate(0,0)"/>
<path d="M0 0 C2 1 2 1 2 1 Z " fill="#08070E" transform="translate(334,244)"/>
<path d="" fill="#00020C" transform="translate(0,0)"/>
<path d="" fill="#000103" transform="translate(0,0)"/>
<path d="M0 0 C2 1 2 1 2 1 Z " fill="#000113" transform="translate(336,243)"/>
<path d="M0 0 C2 1 2 1 2 1 Z " fill="#000302" transform="translate(338,242)"/>
<path d="" fill="#000108" transform="translate(0,0)"/>
<path d="M0 0 C2 1 2 1 2 1 Z " fill="#000C17" transform="translate(340,241)"/>
<path d="M0 0 C2 1 2 1 2 1 Z " fill="#000108" transform="translate(342,240)"/>
<path d="" fill="#000200" transform="translate(0,0)"/>
<path d="M0 0 C2 1 2 1 2 1 Z " fill="#000613" transform="translate(344,239)"/>
<path d="M0 0 C2 1 2 1 2 1 Z " fill="#010413" transform="translate(346,238)"/>
<path d="" fill="#00050B" transform="translate(0,0)"/>
<path d="M0 0 C2 1 2 1 2 1 Z " fill="#00071A" transform="translate(348,237)"/>
<path d="M0 0 C2 1 2 1 2 1 Z " fill="#000308" transform="translate(351,235)"/>
<path d="M0 0 C2 1 2 1 2 1 Z " fill="#010210" transform="translate(353,234)"/>
<path d="M0 0 C2 1 2 1 2 1 Z " fill="#04090E" transform="translate(356,232)"/>
<path d="M0 0 C2 1 2 1 2 1 Z " fill="#000108" transform="translate(359,230)"/>
<path d="M0 0 C2 1 2 1 2 1 Z " fill="#010B15" transform="translate(361,229)"/>
<path d="" fill="#000B07" transform="translate(0,0)"/>
<path d="" fill="#00030F" transform="translate(0,0)"/>
<path d="M0 0 C2 1 2 1 2 1 Z " fill="#00091B" transform="translate(364,227)"/>
<path d="M0 0 C2 1 2 1 2 1 Z " fill="#000619" transform="translate(367,225)"/>
<path d="M0 0 C2 1 2 1 2 1 Z " fill="#00010A" transform="translate(370,223)"/>
<path d="" fill="#000408" transform="translate(0,0)"/>
<path d="M0 0 C2 1 2 1 2 1 Z " fill="#030812" transform="translate(373,221)"/>
<path d="" fill="#01000C" transform="translate(0,0)"/>
<path d="M0 0 C2 1 2 1 2 1 Z " fill="#00071A" transform="translate(376,219)"/>
<path d="" fill="#00000B" transform="translate(0,0)"/>
<path d="" fill="#001112" transform="translate(0,0)"/>
<path d="M0 0 C2 1 2 1 2 1 Z " fill="#00060E" transform="translate(347,209)"/>
<path d="" fill="#000810" transform="translate(0,0)"/>
<path d="M0 0 C2 1 2 1 2 1 Z " fill="#00050A" transform="translate(410,204)"/>
<path d="M0 0 C2 1 2 1 2 1 Z " fill="#000210" transform="translate(408,203)"/>
<path d="M0 0 C2 1 2 1 2 1 Z " fill="#000511" transform="translate(398,203)"/>
<path d="" fill="#000B0B" transform="translate(0,0)"/>
<path d="M0 0 C2 1 2 1 2 1 Z " fill="#000B14" transform="translate(391,192)"/>
<path d="M0 0 C2 1 2 1 2 1 Z " fill="#000609" transform="translate(408,184)"/>
<path d="M0 0 C2 1 2 1 2 1 Z " fill="#040407" transform="translate(410,183)"/>
<path d="M0 0 C2 1 2 1 2 1 Z " fill="#000411" transform="translate(412,182)"/>
<path d="M0 0 C2 1 2 1 2 1 Z " fill="#03050B" transform="translate(414,181)"/>
<path d="M0 0 C2 1 2 1 2 1 Z " fill="#000611" transform="translate(416,180)"/>
<path d="M0 0 C2 1 2 1 2 1 Z " fill="#02060A" transform="translate(418,179)"/>
<path d="M0 0 C2 1 2 1 2 1 Z " fill="#00040E" transform="translate(420,178)"/>
<path d="M0 0 C2 1 2 1 2 1 Z " fill="#000A04" transform="translate(422,177)"/>
<path d="M0 0 C2 1 2 1 2 1 Z " fill="#00080B" transform="translate(424,176)"/>
<path d="M0 0 C2 1 2 1 2 1 Z " fill="#000000" transform="translate(116,174)"/>
<path d="M0 0 C2 1 2 1 2 1 Z " fill="#000B1B" transform="translate(429,173)"/>
<path d="M0 0 C2 1 2 1 2 1 Z " fill="#000406" transform="translate(127,170)"/>
<path d="M0 0 C2 1 2 1 2 1 Z " fill="#000405" transform="translate(135,167)"/>
<path d="M0 0 C2 1 2 1 2 1 Z " fill="#060202" transform="translate(137,166)"/>
<path d="M0 0 C2 1 2 1 2 1 Z " fill="#01030C" transform="translate(140,165)"/>
<path d="M0 0 C2 1 2 1 2 1 Z " fill="#010105" transform="translate(142,164)"/>
<path d="M0 0 C2 1 2 1 2 1 Z " fill="#000706" transform="translate(145,163)"/>
<path d="M0 0 C2 1 2 1 2 1 Z " fill="#040002" transform="translate(147,162)"/>
<path d="M0 0 C2 1 2 1 2 1 Z " fill="#000A09" transform="translate(150,161)"/>
<path d="M0 0 C2 1 2 1 2 1 Z " fill="#000306" transform="translate(155,159)"/>
<path d="M0 0 C2 1 2 1 2 1 Z " fill="#000305" transform="translate(158,158)"/>
<path d="M0 0 C2 1 2 1 2 1 Z " fill="#00040A" transform="translate(160,157)"/>
<path d="M0 0 C2 1 2 1 2 1 Z " fill="#00020F" transform="translate(163,156)"/>
<path d="M0 0 C2 1 2 1 2 1 Z " fill="#000509" transform="translate(165,155)"/>
<path d="M0 0 C2 1 2 1 2 1 Z " fill="#000307" transform="translate(168,154)"/>
<path d="M0 0 C2 1 2 1 2 1 Z " fill="#000308" transform="translate(170,153)"/>
<path d="M0 0 C2 1 2 1 2 1 Z " fill="#000409" transform="translate(173,152)"/>
<path d="M0 0 C2 1 2 1 2 1 Z " fill="#000606" transform="translate(175,151)"/>
<path d="M0 0 C2 1 2 1 2 1 Z " fill="#000109" transform="translate(178,150)"/>
<path d="M0 0 C2 1 2 1 2 1 Z " fill="#00030C" transform="translate(180,149)"/>
<path d="M0 0 C2 1 2 1 2 1 Z " fill="#000509" transform="translate(183,148)"/>
<path d="M0 0 C2 1 2 1 2 1 Z " fill="#000604" transform="translate(185,147)"/>
<path d="M0 0 C2 1 2 1 2 1 Z " fill="#040006" transform="translate(188,146)"/>
<path d="M0 0 C2 1 2 1 2 1 Z " fill="#000604" transform="translate(190,145)"/>
<path d="M0 0 C2 1 2 1 2 1 Z " fill="#000309" transform="translate(193,144)"/>
<path d="M0 0 C2 1 2 1 2 1 Z " fill="#000407" transform="translate(195,143)"/>
<path d="M0 0 C2 1 2 1 2 1 Z " fill="#000103" transform="translate(198,142)"/>
<path d="M0 0 C2 1 2 1 2 1 Z " fill="#00030A" transform="translate(200,141)"/>
<path d="M0 0 C2 1 2 1 2 1 Z " fill="#01060D" transform="translate(203,140)"/>
<path d="M0 0 C2 1 2 1 2 1 Z " fill="#000703" transform="translate(205,139)"/>
<path d="M0 0 C2 1 2 1 2 1 Z " fill="#000005" transform="translate(208,138)"/>
<path d="M0 0 C2 1 2 1 2 1 Z " fill="#00070A" transform="translate(210,137)"/>
<path d="M0 0 C2 1 2 1 2 1 Z " fill="#010004" transform="translate(213,136)"/>
<path d="M0 0 C2 1 2 1 2 1 Z " fill="#000506" transform="translate(215,135)"/>
<path d="M0 0 C2 1 2 1 2 1 Z " fill="#000107" transform="translate(218,134)"/>
<path d="M0 0 C2 1 2 1 2 1 Z " fill="#000003" transform="translate(220,133)"/>
<path d="M0 0 C2 1 2 1 2 1 Z " fill="#000107" transform="translate(223,132)"/>
<path d="M0 0 C2 1 2 1 2 1 Z " fill="#000706" transform="translate(225,131)"/>
<path d="" fill="#010002" transform="translate(0,0)"/>
<path d="M0 0 C2 1 2 1 2 1 Z " fill="#00090C" transform="translate(230,129)"/>
<path d="M0 0 C2 1 2 1 2 1 Z " fill="#000408" transform="translate(235,127)"/>
<path d="M0 0 C2 1 2 1 2 1 Z " fill="#000208" transform="translate(240,125)"/>
<path d="M0 0 C2 1 2 1 2 1 Z " fill="#000801" transform="translate(245,123)"/>
<path d="M0 0 C2 1 2 1 2 1 Z " fill="#030004" transform="translate(248,122)"/>
<path d="M0 0 C2 1 2 1 2 1 Z " fill="#010301" transform="translate(253,120)"/>
<path d="M0 0 C2 1 2 1 2 1 Z " fill="#000107" transform="translate(258,118)"/>
<path d="M0 0 C2 1 2 1 2 1 Z " fill="#03060C" transform="translate(263,116)"/>
<path d="M0 0 C2 1 2 1 2 1 Z " fill="#050107" transform="translate(268,114)"/>
<path d="M0 0 C2 1 2 1 2 1 Z " fill="#000405" transform="translate(275,111)"/>
<path d="M0 0 C2 1 2 1 2 1 Z " fill="#00010B" transform="translate(280,109)"/>
<path d="M0 0 C2 1 2 1 2 1 Z " fill="#000703" transform="translate(285,107)"/>
<path d="M0 0 C2 1 2 1 2 1 Z " fill="#00090F" transform="translate(290,105)"/>
<path d="M0 0 C2 1 2 1 2 1 Z " fill="#000507" transform="translate(295,103)"/>
<path d="M0 0 C2 1 2 1 2 1 Z " fill="#00050C" transform="translate(300,101)"/>
<path d="M0 0 C2 1 2 1 2 1 Z " fill="#000603" transform="translate(308,98)"/>
<path d="" fill="#00070A" transform="translate(0,0)"/>
<path d="" fill="#000008" transform="translate(0,0)"/>
<path d="" fill="#000407" transform="translate(0,0)"/>
<path d="" fill="#000204" transform="translate(0,0)"/>
<path d="" fill="#000009" transform="translate(0,0)"/>
<path d="" fill="#000007" transform="translate(0,0)"/>
<path d="" fill="#000007" transform="translate(0,0)"/>
<path d="" fill="#000409" transform="translate(0,0)"/>
<path d="" fill="#000308" transform="translate(0,0)"/>
<path d="" fill="#000509" transform="translate(0,0)"/>
<path d="" fill="#010206" transform="translate(0,0)"/>
<path d="" fill="#00080B" transform="translate(0,0)"/>
<path d="" fill="#001013" transform="translate(0,0)"/>
<path d="" fill="#00080D" transform="translate(0,0)"/>
<path d="" fill="#00040C" transform="translate(0,0)"/>
<path d="" fill="#000309" transform="translate(0,0)"/>
<path d="" fill="#000505" transform="translate(0,0)"/>
<path d="" fill="#000C0C" transform="translate(0,0)"/>
<path d="" fill="#00010B" transform="translate(0,0)"/>
<path d="" fill="#00020B" transform="translate(0,0)"/>
<path d="" fill="#040009" transform="translate(0,0)"/>
<path d="" fill="#000808" transform="translate(0,0)"/>
<path d="" fill="#000906" transform="translate(0,0)"/>
<path d="" fill="#000708" transform="translate(0,0)"/>
<path d="" fill="#000906" transform="translate(0,0)"/>
<path d="" fill="#000808" transform="translate(0,0)"/>
<path d="" fill="#000005" transform="translate(0,0)"/>
<path d="" fill="#000507" transform="translate(0,0)"/>
<path d="" fill="#000000" transform="translate(0,0)"/>
<path d="" fill="#000209" transform="translate(0,0)"/>
<path d="" fill="#00060B" transform="translate(0,0)"/>
<path d="" fill="#00010B" transform="translate(0,0)"/>
<path d="" fill="#00111A" transform="translate(0,0)"/>
<path d="" fill="#000710" transform="translate(0,0)"/>
<path d="" fill="#000810" transform="translate(0,0)"/>
<path d="" fill="#000D16" transform="translate(0,0)"/>
<path d="" fill="#000806" transform="translate(0,0)"/>
<path d="" fill="#000607" transform="translate(0,0)"/>
<path d="" fill="#000002" transform="translate(0,0)"/>
<path d="" fill="#000400" transform="translate(0,0)"/>
<path d="" fill="#000209" transform="translate(0,0)"/>
<path d="" fill="#050915" transform="translate(0,0)"/>
<path d="" fill="#00050B" transform="translate(0,0)"/>
<path d="" fill="#00020A" transform="translate(0,0)"/>
<path d="" fill="#000403" transform="translate(0,0)"/>
<path d="" fill="#000B13" transform="translate(0,0)"/>
<path d="" fill="#000307" transform="translate(0,0)"/>
<path d="" fill="#00161F" transform="translate(0,0)"/>
<path d="" fill="#00020A" transform="translate(0,0)"/>
<path d="" fill="#00090A" transform="translate(0,0)"/>
<path d="" fill="#001215" transform="translate(0,0)"/>
<path d="" fill="#001011" transform="translate(0,0)"/>
<path d="" fill="#000000" transform="translate(0,0)"/>
<path d="" fill="#00050A" transform="translate(0,0)"/>
<path d="" fill="#000000" transform="translate(0,0)"/>
<path d="" fill="#000704" transform="translate(0,0)"/>
<path d="" fill="#000109" transform="translate(0,0)"/>
<path d="" fill="#00090D" transform="translate(0,0)"/>
<path d="" fill="#010007" transform="translate(0,0)"/>
<path d="" fill="#000713" transform="translate(0,0)"/>
<path d="" fill="#00030A" transform="translate(0,0)"/>
<path d="" fill="#000813" transform="translate(0,0)"/>
<path d="" fill="#000F14" transform="translate(0,0)"/>
<path d="" fill="#00070B" transform="translate(0,0)"/>
<path d="" fill="#002023" transform="translate(0,0)"/>
<path d="" fill="#000207" transform="translate(0,0)"/>
<path d="" fill="#00151A" transform="translate(0,0)"/>
<path d="" fill="#000A11" transform="translate(0,0)"/>
<path d="" fill="#001119" transform="translate(0,0)"/>
<path d="" fill="#000B11" transform="translate(0,0)"/>
<path d="" fill="#000712" transform="translate(0,0)"/>
<path d="" fill="#001111" transform="translate(0,0)"/>
<path d="" fill="#000512" transform="translate(0,0)"/>
<path d="" fill="#000B0A" transform="translate(0,0)"/>
<path d="" fill="#000B15" transform="translate(0,0)"/>
<path d="" fill="#000708" transform="translate(0,0)"/>
<path d="" fill="#000812" transform="translate(0,0)"/>
<path d="" fill="#000B0B" transform="translate(0,0)"/>
<path d="" fill="#00140D" transform="translate(0,0)"/>
<path d="" fill="#000C05" transform="translate(0,0)"/>
<path d="" fill="#000C15" transform="translate(0,0)"/>
<path d="" fill="#00110F" transform="translate(0,0)"/>
<path d="" fill="#050A11" transform="translate(0,0)"/>
<path d="" fill="#000705" transform="translate(0,0)"/>
<path d="" fill="#00070C" transform="translate(0,0)"/>
<path d="" fill="#050303" transform="translate(0,0)"/>
<path d="" fill="#001319" transform="translate(0,0)"/>
<path d="" fill="#000000" transform="translate(0,0)"/>
<path d="" fill="#000C11" transform="translate(0,0)"/>
<path d="" fill="#000100" transform="translate(0,0)"/>
<path d="" fill="#000900" transform="translate(0,0)"/>
<path d="" fill="#000000" transform="translate(0,0)"/>
<path d="" fill="#000002" transform="translate(0,0)"/>
<path d="" fill="#000814" transform="translate(0,0)"/>
<path d="" fill="#020000" transform="translate(0,0)"/>
<path d="" fill="#000F1B" transform="translate(0,0)"/>
<path d="" fill="#000500" transform="translate(0,0)"/>
<path d="" fill="#00060D" transform="translate(0,0)"/>
<path d="" fill="#000705" transform="translate(0,0)"/>
<path d="" fill="#000A0E" transform="translate(0,0)"/>
<path d="" fill="#000005" transform="translate(0,0)"/>
<path d="" fill="#000A10" transform="translate(0,0)"/>
<path d="" fill="#00060D" transform="translate(0,0)"/>
<path d="" fill="#000B13" transform="translate(0,0)"/>
<path d="" fill="#000007" transform="translate(0,0)"/>
<path d="" fill="#000813" transform="translate(0,0)"/>
<path d="" fill="#000D11" transform="translate(0,0)"/>
<path d="" fill="#000914" transform="translate(0,0)"/>
<path d="" fill="#000D14" transform="translate(0,0)"/>
<path d="" fill="#000315" transform="translate(0,0)"/>
<path d="" fill="#000707" transform="translate(0,0)"/>
<path d="" fill="#010103" transform="translate(0,0)"/>
<path d="" fill="#011122" transform="translate(0,0)"/>
<path d="" fill="#000405" transform="translate(0,0)"/>
<path d="" fill="#001019" transform="translate(0,0)"/>
<path d="" fill="#000C10" transform="translate(0,0)"/>
<path d="" fill="#00040B" transform="translate(0,0)"/>
<path d="" fill="#000809" transform="translate(0,0)"/>
<path d="" fill="#000407" transform="translate(0,0)"/>
<path d="" fill="#00050A" transform="translate(0,0)"/>
<path d="" fill="#070D10" transform="translate(0,0)"/>
<path d="" fill="#001213" transform="translate(0,0)"/>
<path d="" fill="#000512" transform="translate(0,0)"/>
<path d="" fill="#000408" transform="translate(0,0)"/>
<path d="" fill="#000005" transform="translate(0,0)"/>
<path d="" fill="#0A0913" transform="translate(0,0)"/>
<path d="" fill="#00101C" transform="translate(0,0)"/>
<path d="" fill="#0E010A" transform="translate(0,0)"/>
<path d="" fill="#000109" transform="translate(0,0)"/>
<path d="" fill="#000202" transform="translate(0,0)"/>
<path d="" fill="#000909" transform="translate(0,0)"/>
<path d="" fill="#001114" transform="translate(0,0)"/>
<path d="" fill="#000700" transform="translate(0,0)"/>
<path d="" fill="#000C0A" transform="translate(0,0)"/>
<path d="" fill="#000206" transform="translate(0,0)"/>
<path d="" fill="#000307" transform="translate(0,0)"/>
<path d="" fill="#000F0E" transform="translate(0,0)"/>
<path d="" fill="#000004" transform="translate(0,0)"/>
<path d="" fill="#000006" transform="translate(0,0)"/>
<path d="" fill="#001110" transform="translate(0,0)"/>
<path d="" fill="#00060A" transform="translate(0,0)"/>
<path d="" fill="#001214" transform="translate(0,0)"/>
<path d="" fill="#010610" transform="translate(0,0)"/>
<path d="" fill="#000607" transform="translate(0,0)"/>
<path d="" fill="#000000" transform="translate(0,0)"/>
<path d="" fill="#000200" transform="translate(0,0)"/>
<path d="" fill="#000400" transform="translate(0,0)"/>
<path d="" fill="#000208" transform="translate(0,0)"/>
<path d="" fill="#03000B" transform="translate(0,0)"/>
<path d="" fill="#000805" transform="translate(0,0)"/>
<path d="" fill="#000A0B" transform="translate(0,0)"/>
<path d="" fill="#000911" transform="translate(0,0)"/>
<path d="" fill="#00060A" transform="translate(0,0)"/>
<path d="" fill="#000607" transform="translate(0,0)"/>
<path d="" fill="#07040A" transform="translate(0,0)"/>
<path d="" fill="#00060D" transform="translate(0,0)"/>
<path d="" fill="#09090D" transform="translate(0,0)"/>
<path d="" fill="#000200" transform="translate(0,0)"/>
<path d="" fill="#000406" transform="translate(0,0)"/>
<path d="" fill="#000608" transform="translate(0,0)"/>
<path d="" fill="#000007" transform="translate(0,0)"/>
<path d="" fill="#000A0E" transform="translate(0,0)"/>
<path d="" fill="#000604" transform="translate(0,0)"/>
<path d="" fill="#000604" transform="translate(0,0)"/>
<path d="" fill="#000C0A" transform="translate(0,0)"/>
<path d="" fill="#000000" transform="translate(0,0)"/>
<path d="" fill="#000710" transform="translate(0,0)"/>
<path d="" fill="#020408" transform="translate(0,0)"/>
<path d="" fill="#000206" transform="translate(0,0)"/>
<path d="" fill="#000000" transform="translate(0,0)"/>
<path d="" fill="#000302" transform="translate(0,0)"/>
<path d="" fill="#090B0A" transform="translate(0,0)"/>
<path d="" fill="#02000C" transform="translate(0,0)"/>
<path d="" fill="#000D12" transform="translate(0,0)"/>
<path d="" fill="#001810" transform="translate(0,0)"/>
<path d="" fill="#000400" transform="translate(0,0)"/>
<path d="" fill="#000306" transform="translate(0,0)"/>
<path d="" fill="#000510" transform="translate(0,0)"/>
<path d="" fill="#001218" transform="translate(0,0)"/>
<path d="" fill="#001212" transform="translate(0,0)"/>
<path d="" fill="#050C1C" transform="translate(0,0)"/>
<path d="" fill="#000912" transform="translate(0,0)"/>
<path d="" fill="#00080B" transform="translate(0,0)"/>
<path d="" fill="#00020F" transform="translate(0,0)"/>
<path d="" fill="#00001A" transform="translate(0,0)"/>
<path d="" fill="#00040C" transform="translate(0,0)"/>
<path d="" fill="#000310" transform="translate(0,0)"/>
<path d="" fill="#000818" transform="translate(0,0)"/>
<path d="" fill="#000408" transform="translate(0,0)"/>
<path d="" fill="#000109" transform="translate(0,0)"/>
<path d="" fill="#030005" transform="translate(0,0)"/>
<path d="" fill="#05030B" transform="translate(0,0)"/>
<path d="" fill="#030005" transform="translate(0,0)"/>
<path d="" fill="#000203" transform="translate(0,0)"/>
<path d="" fill="#0A0802" transform="translate(0,0)"/>
<path d="" fill="#000111" transform="translate(0,0)"/>
<path d="" fill="#000817" transform="translate(0,0)"/>
<path d="" fill="#000C16" transform="translate(0,0)"/>
<path d="" fill="#000000" transform="translate(0,0)"/>
<path d="" fill="#00050A" transform="translate(0,0)"/>
<path d="" fill="#000002" transform="translate(0,0)"/>
<path d="" fill="#00070D" transform="translate(0,0)"/>
<path d="" fill="#000A10" transform="translate(0,0)"/>
<path d="" fill="#000D15" transform="translate(0,0)"/>
<path d="" fill="#000C15" transform="translate(0,0)"/>
<path d="" fill="#000912" transform="translate(0,0)"/>
<path d="" fill="#00040D" transform="translate(0,0)"/>
<path d="" fill="#000F11" transform="translate(0,0)"/>
<path d="" fill="#00040A" transform="translate(0,0)"/>
<path d="" fill="#00040B" transform="translate(0,0)"/>
<path d="" fill="#00050F" transform="translate(0,0)"/>
<path d="" fill="#00040B" transform="translate(0,0)"/>
<path d="" fill="#000B0B" transform="translate(0,0)"/>
<path d="" fill="#000811" transform="translate(0,0)"/>
<path d="" fill="#000D10" transform="translate(0,0)"/>
<path d="" fill="#00070A" transform="translate(0,0)"/>
<path d="" fill="#0A0B16" transform="translate(0,0)"/>
<path d="" fill="#060A0D" transform="translate(0,0)"/>
<path d="" fill="#00080E" transform="translate(0,0)"/>
<path d="" fill="#030A0C" transform="translate(0,0)"/>
<path d="" fill="#000C1C" transform="translate(0,0)"/>
<path d="" fill="#000710" transform="translate(0,0)"/>
<path d="" fill="#000710" transform="translate(0,0)"/>
<path d="" fill="#00050D" transform="translate(0,0)"/>
<path d="" fill="#000007" transform="translate(0,0)"/>
<path d="" fill="#00140D" transform="translate(0,0)"/>
<path d="" fill="#00000A" transform="translate(0,0)"/>
<path d="" fill="#00030F" transform="translate(0,0)"/>
<path d="" fill="#06050C" transform="translate(0,0)"/>
<path d="" fill="#000511" transform="translate(0,0)"/>
<path d="" fill="#000718" transform="translate(0,0)"/>
<path d="" fill="#000708" transform="translate(0,0)"/>
<path d="" fill="#000708" transform="translate(0,0)"/>
<path d="" fill="#00090F" transform="translate(0,0)"/>
<path d="" fill="#00040D" transform="translate(0,0)"/>
<path d="" fill="#000908" transform="translate(0,0)"/>
<path d="" fill="#00060A" transform="translate(0,0)"/>
<path d="" fill="#000E0C" transform="translate(0,0)"/>
<path d="" fill="#000506" transform="translate(0,0)"/>
<path d="" fill="#000008" transform="translate(0,0)"/>
<path d="" fill="#001212" transform="translate(0,0)"/>
<path d="" fill="#000614" transform="translate(0,0)"/>
<path d="" fill="#00070C" transform="translate(0,0)"/>
<path d="" fill="#00030A" transform="translate(0,0)"/>
<path d="" fill="#00060D" transform="translate(0,0)"/>
<path d="" fill="#000D14" transform="translate(0,0)"/>
<path d="" fill="#000713" transform="translate(0,0)"/>
<path d="" fill="#00070D" transform="translate(0,0)"/>
<path d="" fill="#090609" transform="translate(0,0)"/>
<path d="" fill="#010101" transform="translate(0,0)"/>
<path d="" fill="#05090C" transform="translate(0,0)"/>
<path d="" fill="#00020B" transform="translate(0,0)"/>
<path d="" fill="#000816" transform="translate(0,0)"/>
<path d="" fill="#00080C" transform="translate(0,0)"/>
<path d="" fill="#000A0E" transform="translate(0,0)"/>
<path d="" fill="#00000E" transform="translate(0,0)"/>
<path d="" fill="#000617" transform="translate(0,0)"/>
<path d="" fill="#00060C" transform="translate(0,0)"/>
<path d="" fill="#010B1F" transform="translate(0,0)"/>
<path d="" fill="#000C0E" transform="translate(0,0)"/>
<path d="" fill="#00000E" transform="translate(0,0)"/>
<path d="" fill="#000E13" transform="translate(0,0)"/>
<path d="" fill="#000106" transform="translate(0,0)"/>
<path d="" fill="#000B0E" transform="translate(0,0)"/>
<path d="" fill="#000000" transform="translate(0,0)"/>
<path d="" fill="#000A10" transform="translate(0,0)"/>
<path d="" fill="#000A0D" transform="translate(0,0)"/>
<path d="" fill="#000414" transform="translate(0,0)"/>
<path d="" fill="#000F12" transform="translate(0,0)"/>
<path d="" fill="#00070F" transform="translate(0,0)"/>
<path d="" fill="#000A0A" transform="translate(0,0)"/>
<path d="" fill="#000915" transform="translate(0,0)"/>
<path d="" fill="#000110" transform="translate(0,0)"/>
<path d="" fill="#001212" transform="translate(0,0)"/>
<path d="" fill="#000B1B" transform="translate(0,0)"/>
<path d="" fill="#000302" transform="translate(0,0)"/>
<path d="" fill="#000005" transform="translate(0,0)"/>
<path d="" fill="#000111" transform="translate(0,0)"/>
<path d="" fill="#000009" transform="translate(0,0)"/>
<path d="" fill="#000417" transform="translate(0,0)"/>
<path d="" fill="#000814" transform="translate(0,0)"/>
<path d="" fill="#00040D" transform="translate(0,0)"/>
<path d="" fill="#000110" transform="translate(0,0)"/>
<path d="" fill="#00060A" transform="translate(0,0)"/>
<path d="" fill="#000004" transform="translate(0,0)"/>
<path d="" fill="#00060C" transform="translate(0,0)"/>
<path d="" fill="#00081B" transform="translate(0,0)"/>
<path d="" fill="#000A13" transform="translate(0,0)"/>
<path d="" fill="#00040C" transform="translate(0,0)"/>
<path d="" fill="#050B0F" transform="translate(0,0)"/>
<path d="" fill="#000C06" transform="translate(0,0)"/>
<path d="" fill="#000408" transform="translate(0,0)"/>
<path d="" fill="#000817" transform="translate(0,0)"/>
<path d="" fill="#000C1A" transform="translate(0,0)"/>
<path d="" fill="#000B16" transform="translate(0,0)"/>
<path d="" fill="#001211" transform="translate(0,0)"/>
<path d="" fill="#00161B" transform="translate(0,0)"/>
<path d="" fill="#000811" transform="translate(0,0)"/>
<path d="" fill="#000001" transform="translate(0,0)"/>
<path d="" fill="#000708" transform="translate(0,0)"/>
<path d="" fill="#000409" transform="translate(0,0)"/>
<path d="" fill="#00050A" transform="translate(0,0)"/>
<path d="" fill="#001619" transform="translate(0,0)"/>
<path d="" fill="#00121F" transform="translate(0,0)"/>
<path d="" fill="#000817" transform="translate(0,0)"/>
<path d="" fill="#001227" transform="translate(0,0)"/>
<path d="" fill="#000D1A" transform="translate(0,0)"/>
<path d="" fill="#000715" transform="translate(0,0)"/>
<path d="" fill="#000C14" transform="translate(0,0)"/>
<path d="" fill="#001C1D" transform="translate(0,0)"/>
<path d="" fill="#000B11" transform="translate(0,0)"/>
<path d="" fill="#000009" transform="translate(0,0)"/>
<path d="" fill="#000507" transform="translate(0,0)"/>
<path d="" fill="#000C0B" transform="translate(0,0)"/>
<path d="" fill="#000C18" transform="translate(0,0)"/>
<path d="" fill="#000A18" transform="translate(0,0)"/>
<path d="" fill="#000E17" transform="translate(0,0)"/>
<path d="" fill="#000B0B" transform="translate(0,0)"/>
<path d="" fill="#000514" transform="translate(0,0)"/>
<path d="" fill="#000915" transform="translate(0,0)"/>
<path d="" fill="#00080B" transform="translate(0,0)"/>
<path d="" fill="#000000" transform="translate(0,0)"/>
<path d="" fill="#000911" transform="translate(0,0)"/>
<path d="" fill="#050B0D" transform="translate(0,0)"/>
<path d="" fill="#000208" transform="translate(0,0)"/>
<path d="" fill="#050004" transform="translate(0,0)"/>
<path d="" fill="#000001" transform="translate(0,0)"/>
<path d="" fill="#000000" transform="translate(0,0)"/>
<path d="" fill="#000801" transform="translate(0,0)"/>
<path d="" fill="#000E0F" transform="translate(0,0)"/>
<path d="" fill="#000808" transform="translate(0,0)"/>
<path d="" fill="#001118" transform="translate(0,0)"/>
<path d="" fill="#00040A" transform="translate(0,0)"/>
<path d="" fill="#000904" transform="translate(0,0)"/>
<path d="" fill="#000500" transform="translate(0,0)"/>
<path d="" fill="#000000" transform="translate(0,0)"/>
<path d="" fill="#04060A" transform="translate(0,0)"/>
<path d="" fill="#020006" transform="translate(0,0)"/>
<path d="" fill="#000000" transform="translate(0,0)"/>
<path d="" fill="#000004" transform="translate(0,0)"/>
<path d="" fill="#000000" transform="translate(0,0)"/>
<path d="" fill="#000904" transform="translate(0,0)"/>
<path d="" fill="#000509" transform="translate(0,0)"/>
<path d="" fill="#000007" transform="translate(0,0)"/>
<path d="" fill="#000107" transform="translate(0,0)"/>
<path d="" fill="#000A0B" transform="translate(0,0)"/>
<path d="" fill="#000A0C" transform="translate(0,0)"/>
<path d="" fill="#00050A" transform="translate(0,0)"/>
<path d="" fill="#000504" transform="translate(0,0)"/>
<path d="" fill="#000003" transform="translate(0,0)"/>
<path d="" fill="#000200" transform="translate(0,0)"/>
<path d="" fill="#010400" transform="translate(0,0)"/>
<path d="" fill="#000505" transform="translate(0,0)"/>
<path d="" fill="#010206" transform="translate(0,0)"/>
<path d="" fill="#000000" transform="translate(0,0)"/>
<path d="" fill="#000002" transform="translate(0,0)"/>
<path d="" fill="#000000" transform="translate(0,0)"/>
<path d="" fill="#000208" transform="translate(0,0)"/>
<path d="" fill="#000200" transform="translate(0,0)"/>
<path d="" fill="#000006" transform="translate(0,0)"/>
<path d="" fill="#000000" transform="translate(0,0)"/>
<path d="" fill="#020400" transform="translate(0,0)"/>
<path d="" fill="#000604" transform="translate(0,0)"/>
<path d="" fill="#000705" transform="translate(0,0)"/>
<path d="" fill="#000000" transform="translate(0,0)"/>
<path d="" fill="#000305" transform="translate(0,0)"/>
<path d="" fill="#000006" transform="translate(0,0)"/>
<path d="" fill="#00070A" transform="translate(0,0)"/>
<path d="" fill="#000401" transform="translate(0,0)"/>
<path d="" fill="#000808" transform="translate(0,0)"/>
<path d="" fill="#000000" transform="translate(0,0)"/>
<path d="" fill="#000206" transform="translate(0,0)"/>
<path d="" fill="#000B11" transform="translate(0,0)"/>
<path d="" fill="#000A0D" transform="translate(0,0)"/>
<path d="" fill="#000D07" transform="translate(0,0)"/>
<path d="" fill="#02090B" transform="translate(0,0)"/>
<path d="" fill="#000509" transform="translate(0,0)"/>
<path d="" fill="#00080C" transform="translate(0,0)"/>
<path d="" fill="#000401" transform="translate(0,0)"/>
<path d="" fill="#00070C" transform="translate(0,0)"/>
</svg>
